<svg xmlns="http://www.w3.org/2000/svg" viewBox="0 0 368.003 106.893"><defs><clipPath id="a"><path fill="none" d="M0 26.092h368V-80.8H0z" transform="translate(0 80.801)"/></clipPath></defs><path d="M36.08 0v9.254l27.247 10.772v66.956l13.588 5.2V15.634z"/><path d="M18.04 7.354v9.254L45.287 27.38v66.956l13.588 5.2V22.988z"/><path d="M0 91.259l40.835 15.634V30.342L0 14.708z"/><g clip-path="url(#a)"><path d="M101.12 60.143l-.253-.057a9.587 9.587 0 01-4.195-2v17.395l-5.712-2.166V32.758h5.712v2.279a9.557 9.557 0 014.11-1.97l.28-.057a15.337 15.337 0 012.816-.252 15.327 15.327 0 012.815.253l.308.057a11.529 11.529 0 017.178 4.5 14.924 14.924 0 012.617 9.008 14.81 14.81 0 01-2.643 9.006 11.5 11.5 0 01-7.235 4.5l-.278.061a14.6 14.6 0 01-2.758.253 14.61 14.61 0 01-2.762-.253m-4.448-13.511a9.348 9.348 0 001.381 5.4q1.8 2.647 5.825 2.646 4.054 0 5.855-2.674a9.669 9.669 0 001.351-5.432 9.727 9.727 0 00-1.351-5.461q-1.8-2.673-5.855-2.674-4.024 0-5.825 2.646a9.487 9.487 0 00-1.381 5.437zm37.549-13.876a12.241 12.241 0 019.4 3.772q3.518 3.745 3.52 10.049t-3.52 10.048a12.241 12.241 0 01-9.4 3.772 12.239 12.239 0 01-9.4-3.772q-3.518-3.743-3.52-10.048t3.52-10.049a12.239 12.239 0 019.4-3.772m0 21.926q4.052 0 5.854-2.646a9.646 9.646 0 001.378-5.46 9.65 9.65 0 00-1.378-5.46q-1.8-2.645-5.854-2.646t-5.854 2.646a9.8 9.8 0 00-1.352 5.461 9.8 9.8 0 001.352 5.459q1.8 2.647 5.854 2.646m23.137 5.715h-5.712V32.813h5.712v2.281a9.793 9.793 0 014.109-2l.282-.057a15.326 15.326 0 012.815-.252v5.714q-4.026 0-5.825 2.646a9.487 9.487 0 00-1.381 5.431zm14.71-21.449l-4-.479v-5.713l4 .479V24h5.715v9.233l3.994-.479v5.715l-3.994.479v12.807a3.242 3.242 0 00.759 2.445 2.6 2.6 0 001.717.478h1.491V60.4h-1.491a7.773 7.773 0 01-5.94-2.4 8.745 8.745 0 01-2.251-6.245V38.948zm32.313-6.163h5.715v27.612h-5.715v-2.28a9.526 9.526 0 01-4.08 1.97l-.311.057a15.326 15.326 0 01-2.815.253 15.312 15.312 0 01-2.814-.253l-.311-.057a11.371 11.371 0 01-7.148-4.531 14.69 14.69 0 01-2.648-8.98 14.857 14.857 0 012.648-9.034 11.384 11.384 0 017.233-4.475l.282-.089a16.355 16.355 0 012.758-.221 16.332 16.332 0 012.758.221l.282.089a9.341 9.341 0 014.166 1.97zm0 13.764a9.529 9.529 0 00-1.379-5.432q-1.8-2.647-5.827-2.646-4.052 0-5.854 2.646a9.8 9.8 0 00-1.353 5.461 9.66 9.66 0 001.352 5.433q1.8 2.673 5.854 2.674 4.026 0 5.827-2.646a9.529 9.529 0 001.378-5.432zm25.751 13.848h-5.712V32.785h5.712v1.66c.243-.169.5-.328.758-.479a11.709 11.709 0 015.348-1.209 11.687 11.687 0 015.346 1.209 10.324 10.324 0 013.856 3.35 8.656 8.656 0 013.379-3.35 11.688 11.688 0 015.347-1.209 11.585 11.585 0 015.349 1.209 10.74 10.74 0 014.757 4.814 16.669 16.669 0 011.716 7.8v13.817h-5.683V46.576a10.759 10.759 0 00-1.181-5.432 5.258 5.258 0 00-4.954-2.674 5.3 5.3 0 00-4.927 2.617 10.919 10.919 0 00-1.18 5.376v13.934h-5.715V46.576a11 11 0 00-1.152-5.432 5.258 5.258 0 00-4.958-2.673 5.252 5.252 0 00-4.9 2.589 10.471 10.471 0 00-1.206 5.319zm46.836-1.21a10.768 10.768 0 01-4.758-4.785 16.861 16.861 0 01-1.716-7.825V32.756h5.716v13.821a11.028 11.028 0 001.153 5.458 5.273 5.273 0 004.954 2.648 5.265 5.265 0 004.9-2.561 10.627 10.627 0 001.208-5.349V32.756h5.716v27.613h-5.719v-1.661a4.469 4.469 0 01-.758.479 11.676 11.676 0 01-5.347 1.21 11.678 11.678 0 01-5.349-1.21m40.363-25.216a10.734 10.734 0 014.756 4.808 16.626 16.626 0 011.718 7.8v13.818h-5.712v-13.82a10.957 10.957 0 00-1.153-5.432 5.258 5.258 0 00-4.956-2.674 5.25 5.25 0 00-4.9 2.59 10.511 10.511 0 00-1.21 5.319v14.017h-5.714V32.784h5.714v1.661c.246-.169.5-.328.761-.479a11.678 11.678 0 015.349-1.21 11.676 11.676 0 015.347 1.215m20.773 26.116a11.371 11.371 0 01-7.149-4.533 14.682 14.682 0 01-2.642-8.978 14.856 14.856 0 012.642-9.034 11.382 11.382 0 017.232-4.48l.284-.085a16.3 16.3 0 012.756-.225 16.386 16.386 0 012.761.225l.279.085a9.329 9.329 0 014.165 1.97v-15.2h5.716v40.564h-5.716v-2.279a9.519 9.519 0 01-4.08 1.97l-.311.057a15.323 15.323 0 01-2.814.253 15.326 15.326 0 01-2.814-.253zm3.123-21.617q-4.054 0-5.855 2.646a9.8 9.8 0 00-1.351 5.46 9.663 9.663 0 001.351 5.433q1.8 2.673 5.855 2.674 4.028 0 5.827-2.646a9.508 9.508 0 001.377-5.432v-.057a9.508 9.508 0 00-1.377-5.432q-1.8-2.647-5.827-2.646M364 29.266a2.972 2.972 0 01-2.223-.932 3.026 3.026 0 01-.93-2.224 3.026 3.026 0 01.93-2.224 3.018 3.018 0 012.223-.9 2.988 2.988 0 012.2.9 3.034 3.034 0 01.923 2.228 3.034 3.034 0 01-.927 2.22 2.943 2.943 0 01-2.2.929m-2.866 3.493h5.714v27.64h-5.714zM171.419 73.935l1.854-.221v1.388l-1.854.221v6.524q0 2 1.782 2h.074v1.4h-.076a3.056 3.056 0 01-2.323-.922 3.52 3.52 0 01-.857-2.478v-6.524l-1.87-.221v-1.388l1.87.221v-4.387h1.4zm10.885.184a4.387 4.387 0 011.975 2.04 7.2 7.2 0 01.7 3.28v5.811h-1.4v-5.811a5.2 5.2 0 00-.9-3.268 3.087 3.087 0 00-2.575-1.141 3.141 3.141 0 00-2.445.971 4.537 4.537 0 00-1.02 2.8v6.449h-1.4V67.608h1.4v7.715a3.478 3.478 0 011.265-1.2 4.751 4.751 0 012.2-.493 4.8 4.8 0 012.2.491m5.475-3.38a.806.806 0 01-.586-.246.8.8 0 01-.246-.59.8.8 0 01.246-.589.806.806 0 01.586-.246.806.806 0 01.59.246.8.8 0 01.246.589.8.8 0 01-.246.59.806.806 0 01-.59.246m-.7 2.892h1.4v11.619h-1.4zm11.455.486a4.455 4.455 0 011.975 2.04 7.178 7.178 0 01.7 3.28v5.812h-1.4v-5.813a5.2 5.2 0 00-.9-3.268 3.119 3.119 0 00-2.587-1.142 3.151 3.151 0 00-2.433.971 4.518 4.518 0 00-1.019 2.788v6.462h-1.4V73.64h1.4v1.671a3.5 3.5 0 011.265-1.192 4.719 4.719 0 012.187-.491 4.821 4.821 0 012.212.491m14.129 11.132h-1.671l-4.006-6.23q-.208.246-1.252 1.463l-.737.872q-.349.388-.418.479v3.416h-1.4V67.607h1.4v12.078q.3-.345 2.125-2.519 2.016-2.383 2.975-3.522h1.829q-.873 1.027-2.249 2.674-.492.59-.911 1.081-.369.443-.419.492zm18.738-6.659a4.868 4.868 0 013.4 1.069 2.907 2.907 0 01.983 2.261 2.945 2.945 0 01-.983 2.273 4.9 4.9 0 01-3.4 1.057 5.308 5.308 0 01-3.024-.772 2.968 2.968 0 01-1.265-1.76l1.442-.123a1.72 1.72 0 00.823.848 4.29 4.29 0 002.028.4 3.415 3.415 0 002.494-.75 1.559 1.559 0 00.406-.638 1.771 1.771 0 00-.004-1.077 1.572 1.572 0 00-.406-.639 3.457 3.457 0 00-2.494-.737 4.678 4.678 0 01-3.257-1.024 2.829 2.829 0 01-.933-2.17 2.792 2.792 0 01.933-2.162 4.678 4.678 0 013.257-1.02 4.89 4.89 0 013.022.823 2.936 2.936 0 01.7.762 3.187 3.187 0 01.344.774l-1.462.111a1.679 1.679 0 00-.775-.725 4.152 4.152 0 00-1.83-.344 3.23 3.23 0 00-2.335.688 1.475 1.475 0 00-.368.59 1.484 1.484 0 00-.087.5 1.426 1.426 0 00.087.5 1.374 1.374 0 00.368.59 3.23 3.23 0 002.335.688m8.296-4.65l1.852-.221v1.388l-1.852.221v6.524q0 2 1.782 2h.073v1.4h-.075a3.054 3.054 0 01-2.323-.922 3.521 3.521 0 01-.857-2.478v-6.524l-1.87-.221v-1.388l1.87.221v-4.387h1.4zm12.172-.307h1.413v11.611h-1.413v-1.711a3.485 3.485 0 01-1.278 1.244 4.9 4.9 0 01-2.2.479 4.876 4.876 0 01-2.212-.492 4.4 4.4 0 01-1.964-2.039 7.222 7.222 0 01-.7-3.281v-5.811h1.4v5.812a5.158 5.158 0 00.9 3.268 3.085 3.085 0 002.58 1.143 3.141 3.141 0 002.445-.971 4.554 4.554 0 001.02-2.813h.012zm12.766-6.021h1.4v17.644h-1.4v-2.249a3.8 3.8 0 01-2.678 2.112l-.123.025a6.156 6.156 0 01-1.191.111 6.16 6.16 0 01-1.192-.111l-.107-.025a4.707 4.707 0 01-3.01-1.9 6.282 6.282 0 01-1.09-3.775 6.308 6.308 0 011.1-3.797 4.725 4.725 0 013.01-1.892l.111-.025a6.951 6.951 0 011.18-.1 6.728 6.728 0 011.167.1l.111.025a3.814 3.814 0 012.712 2.113zm-3.991 16.243a3.775 3.775 0 002.949-1.155 4.692 4.692 0 001.044-3.256v-.013a4.672 4.672 0 00-1.045-3.243 3.775 3.775 0 00-2.948-1.154 3.767 3.767 0 00-2.95 1.154 4.679 4.679 0 00-1.05 3.256 4.679 4.679 0 001.05 3.256 3.767 3.767 0 002.95 1.155m15.7-10.21h1.4v12.876a5.241 5.241 0 01-1.426 3.883 5.191 5.191 0 01-3.859 1.425 4.909 4.909 0 01-4.4-2.076l1.278-.627a3.7 3.7 0 003.119 1.3 3.873 3.873 0 002.864-1.02 3.911 3.911 0 001.019-2.888v-2.946a3.457 3.457 0 01-1.265 1.2 4.891 4.891 0 01-2.2.48 4.872 4.872 0 01-2.212-.492 4.408 4.408 0 01-1.954-2.023 7.263 7.263 0 01-.7-3.293V73.64h1.4v5.8a5.218 5.218 0 00.9 3.28 3.1 3.1 0 002.573 1.13 3.166 3.166 0 002.445-.971 4.481 4.481 0 001.018-2.788zm21.245 10.215a3.638 3.638 0 003.23-1.516l1.291.577a4.733 4.733 0 01-1.854 1.733 5.793 5.793 0 01-2.667.6 5.121 5.121 0 01-3.945-1.559 6 6 0 01-1.449-4.25 6.006 6.006 0 011.449-4.252 5.125 5.125 0 013.945-1.56 5.757 5.757 0 012.654.6 4.662 4.662 0 011.855 1.7l-1.29.589a3.645 3.645 0 00-3.219-1.488 3.771 3.771 0 00-2.949 1.155 4.686 4.686 0 00-1.045 3.256 4.686 4.686 0 001.045 3.255 3.771 3.771 0 002.949 1.16m10.946-10.227a5.123 5.123 0 013.944 1.56 6.007 6.007 0 011.45 4.252 6 6 0 01-1.45 4.251 5.119 5.119 0 01-3.945 1.561 5.12 5.12 0 01-3.944-1.561 6 6 0 01-1.45-4.251 6.007 6.007 0 011.451-4.252 5.124 5.124 0 013.944-1.56m0 10.222a3.767 3.767 0 002.948-1.155 4.679 4.679 0 001.045-3.255 4.679 4.679 0 00-1.045-3.256 3.767 3.767 0 00-2.948-1.156 3.775 3.775 0 00-2.949 1.156 4.692 4.692 0 00-1.044 3.256 4.692 4.692 0 001.044 3.255 3.775 3.775 0 002.949 1.155m14.426-9.731a4.462 4.462 0 011.975 2.04 7.2 7.2 0 01.7 3.28v5.812h-1.4v-5.813a5.191 5.191 0 00-.9-3.268 3.118 3.118 0 00-2.587-1.142 3.154 3.154 0 00-2.434.971 4.526 4.526 0 00-1.019 2.788v6.462h-1.4V73.64h1.4v1.671a3.51 3.51 0 011.265-1.192 4.725 4.725 0 012.188-.491 4.829 4.829 0 012.212.491m11.708 0a4.455 4.455 0 011.975 2.04 7.178 7.178 0 01.7 3.28v5.812h-1.4v-5.813a5.2 5.2 0 00-.9-3.268 3.121 3.121 0 00-2.587-1.142 3.151 3.151 0 00-2.433.971 4.518 4.518 0 00-1.019 2.788v6.462h-1.4V73.64h1.4v1.671a3.5 3.5 0 011.265-1.192 4.719 4.719 0 012.187-.491 4.821 4.821 0 012.212.491m15.431 5.848h-9.362a6.919 6.919 0 00.1.75 3.743 3.743 0 001.329 2.322 4.213 4.213 0 002.679.811 4.167 4.167 0 003.509-1.475l1.278.627a4.706 4.706 0 01-1.966 1.659 6.616 6.616 0 01-2.826.59 5.357 5.357 0 01-4.017-1.524 5.885 5.885 0 01-1.511-4.166v-.121a6 6 0 011.454-4.252 5.119 5.119 0 013.942-1.56 5.252 5.252 0 013.548 1.204 5.276 5.276 0 011.745 3.342 8.944 8.944 0 01.1 1.155zm-9.227-2.04a4.8 4.8 0 00-.122.774h7.916a8.132 8.132 0 00-.053-.381l-.026-.172a.631.631 0 00-.036-.122l-.013-.1a3.708 3.708 0 00-1.327-2.148 4.014 4.014 0 00-2.507-.749 4.013 4.013 0 00-2.506.749 3.637 3.637 0 00-1.326 2.149m16.588 5.928a3.639 3.639 0 003.23-1.516l1.291.577a4.727 4.727 0 01-1.855 1.733 5.788 5.788 0 01-2.666.6 5.119 5.119 0 01-3.945-1.559 6 6 0 01-1.45-4.251 6.007 6.007 0 011.45-4.252 5.123 5.123 0 013.945-1.56 5.757 5.757 0 012.654.6 4.671 4.671 0 011.855 1.7l-1.292.588a3.643 3.643 0 00-3.217-1.486 3.767 3.767 0 00-2.949 1.155 4.679 4.679 0 00-1.045 3.256 4.679 4.679 0 001.045 3.255 3.767 3.767 0 002.949 1.16m8.688-9.92l1.852-.221v1.388l-1.852.221v6.524q0 2 1.782 2h.073v1.4h-.075a3.052 3.052 0 01-2.323-.922 3.521 3.521 0 01-.857-2.478v-6.524l-1.87-.221v-1.388l1.87.221v-4.387h1.4zm-80.783 7.055a2.106 2.106 0 01-1.576-.659 2.142 2.142 0 01-.66-1.577 2.142 2.142 0 01.66-1.577 2.139 2.139 0 011.576-.639 2.118 2.118 0 011.554.639 2.15 2.15 0 01.66 1.577 2.15 2.15 0 01-.66 1.577 2.086 2.086 0 01-1.557.659m-65.91 0a2.106 2.106 0 01-1.576-.659 2.142 2.142 0 01-.66-1.577 2.142 2.142 0 01.66-1.577 2.139 2.139 0 011.576-.639 2.118 2.118 0 011.554.639 2.15 2.15 0 01.66 1.577 2.15 2.15 0 01-.66 1.577 2.086 2.086 0 01-1.557.659"/></g></svg>