<svg viewBox="0 0 284 337" height="116" xmlns="http://www.w3.org/2000/svg"><g fill-rule="nonzero" fill="none"><path d="M141.55 0C95.096.005 53.428 28.578 36.682 71.908c-16.745 43.331-5.12 92.499 29.258 123.742A112.69 112.69 0 0 0 77 204.51c.43.23 2.35 1.36 2.87 1.6a19.7 19.7 0 0 0 8.63 1.75c1.83.07 3.8 0 5.2-1.29a8.32 8.32 0 0 0 2.57-3.86c.41-1.94-3.2-2.42-1.37-3.92.6-.5 1.1-.36 1.22.47.12.83.88 2.29 2.33.78.17-.17 1.62-1.71 1.82-1.83 1.49-.86 1.91.49 3.58.25a7 7 0 0 1 1.51.13 1.27 1.27 0 0 0 1.31-.55c.26-.52-.09-1.25.28-1.7.17-.22.47-.3.65-.5.71-.75-.56-2.14.09-2.94.219-.2.464-.369.73-.5a7.1 7.1 0 0 0 1.06-1.13 1.28 1.28 0 0 1 1.39-.42c1 .52.05 2.43 1 3.09a.38.38 0 0 1 .16 0 .93.93 0 0 1 .16.18 6.16 6.16 0 0 0 1 .06c.347.012.667.191.86.48.38-.08.8-.11 1-.43.2-.32-.64-1.58.06-1.45.12 0 .2.13.3.2a.88.88 0 0 0 1.26-.23 1.26 1.26 0 0 0 .08-.66c-.07.1-.15.19-.29.08-.14-.11-.08-.25.06-.36a1.62 1.62 0 0 0 .19-.18.25.25 0 0 0 0-.09.69.69 0 0 0 0 .08.19.19 0 0 1 .25 0v.06a3.1 3.1 0 0 0 .57-.53 1 1 0 0 0-.6-.73c.13-.2.37-.21.55-.39 0-.37.15-.81-.26-1 .08-.37.4 0 .55-.19-.37-.36.42-.84-.18-1.11h.12a6.86 6.86 0 0 0-1.24-1 1 1 0 0 0 .74-.26c-.019-.28.04-.56.17-.81.09-.2.17-.31.25-.34A2.14 2.14 0 0 0 117 184c-1.56-1.69-5.18-3.72-3.34-6.53 1-1.54 3.34-1 4.89-.88l.39-.05c1.5.5 3 1 3.92 2.08.36.25.84.49.83.82.08.096.17.184.27.26.78.6 1.7 1.28 2.55 2l.25-.21a.88.88 0 0 1 .21.62c1.25 1.17 2.22 2.5 2 3.94 2.6.58 2.78 2 5.43 2.31a29.81 29.81 0 0 0 3.27.14 2.2 2.2 0 0 1 .49-1l.06-.34c0-.15.15-.29 0-.44.08-.17-.15-.41 0-.56a.19.19 0 0 1 .16.06c.188.033.38.015.56-.05a.68.68 0 0 1 0 .14c-.28.36.15.31.18.5s.17.52.44.29c.07.17.15.3.35.29v.08c-.2.14-.51 0-.59.43 0 .17.1.34 0 .52.4 0 .8-.06 1.19-.09a5.37 5.37 0 0 0-.17-1.68c.34 0 .24.8.79 1 .55.2 1-.41 1.4-.75.28-.52.33-1.23.91-1.35a2.74 2.74 0 0 0-.12 2.49c1.53-.22 3.06-.49 4.59-.79-.16-.68 1.68-.33 1-1.11l-1.07-.31c.48-.16.82-.42.69-.78a9.78 9.78 0 0 0-2.16-.67c.46-.23 1.36-.41 1.59-1l-.83-.86a6.4 6.4 0 0 0 4.29.06c.35-.52-.77-.68-.53-.9.26.12.8.47 1.28.3.41-1.29.22-3-.88-3.76.32.3.43-.28.72-.38 1 1 1.66 2.33 2.9 3.12.88-.85 1 1.07 2.47-.25.21-.34-.8-.47-.1-.91.32-.11.64-.26.95-.4a3.65 3.65 0 0 0-.08-.54 2.76 2.76 0 0 1 1-2c.45-.19 1-.19 1.28-.7.51.13 1.15 1 1.66.25.134.09.261.19.38.3 1.43-1.18 2.74-2.48 4-3.64-.22.61.9 1 .3 1.79-.85 1.24-4.17 2.74-2 3.69 1.43 1.33 1.53 3.46.72 5.44 1.54 1.2 3.77.12 5.85-.29 0-.06.05-.11.07-.17a6.63 6.63 0 0 1 .39-3.67c.1-.22.21-.44.33-.65a4.56 4.56 0 0 1-.14-.44 6.66 6.66 0 0 1 1.35-2.52 3.27 3.27 0 0 1 1.39-.32c.31-.29.63-.58 1-.84a6.17 6.17 0 0 1 3.15-1.55c.73-.08 2 0 1.42 1-1.25 2-5.05 2.43-4.38 5.51.39 1.79 2.5.57 3.62.85 0 .55-.31 1-.28 1.61.03.61.34.8.34 1.23 0 1.44-3.5 1.85-1.67 3.83a1.71 1.71 0 0 0 2.57-.21 1.93 1.93 0 0 0-.55 1.33c.06.5.74.88 1.06.51.1-.12.18-.29.33-.29.15 0 .21.31.18.51-.07.58.91 3.82 1.51 4.17.22.13.32.38.49.56 1.31 1.4 3.39-1.3 4.92.87v-.44a.423.423 0 0 1 .37.76c.59.69 1.18 1.39 1.76 2.09a14.32 14.32 0 0 1-4.09-.94c0 .6 1.4 1.28 1.81 1.53 1 .63 2.06 1.18 3.12 1.71a.86.86 0 0 1 .22.15c.76.83.63 2.19 1.3 3.12 2.71 3.78 9.14 4.5 12.85 1.93a140 140 0 0 0 11.36-9.25c34.376-31.245 46.002-80.411 29.263-123.744C229.663 28.603 188.003.02 141.55 0zm-60.5 135.23c-.69.08-1-.76-1.38-1.15l.06-.7c.59 0 1 .5 1.36 1 .21.3.26.8 0 .83l-.04.02zm1.91 43.98a.51.51 0 0 1-.76-.26.53.53 0 0 1 .27-.73.76.76 0 0 1 .64.45.41.41 0 0 1-.15.54zm7.7-46.58a.59.59 0 0 1 .65.32c.2.3.09.52-.14.74a.7.7 0 0 1-.73-.42c-.12-.28-.06-.56.22-.64zm.19 11.53c-.27-.36-.53-.73-.79-1.09l.28-.38A1.42 1.42 0 0 1 91.5 144c.1.54-.56-.09-.69.13l.04.03zm1.61-32.49c-.2 0-.3-.16-.36-.42.09-.06.18-.17.27-.17.09 0 .31.16.33.37a.2.2 0 0 1-.24.22zm3.31 52.41c-.16 0-.27-.12-.36-.26-.09-.14-.13-.27 0-.31.13-.04.26.11.35.26.09.15.12.25 0 .31h.01zm7.65-14.08l.66.74c-.22.06.11.65-.3.5-.41-.15-.88-.41-.76-1.08l.4-.16zm-3.24 30.52c-.21.18-.57 0-.87-.3-.3-.3-.54-.71-.34-1a.76.76 0 0 1 .87.2c.45.41.65.83.34 1.09v.01zm1-19.32c-.28-.29-.45-.61-.33-.85s.47-.21.8 0a1 1 0 0 1 .44 1 .69.69 0 0 1-.91-.17v.02zm1.64-3.49l.35-.15.69.71c-.2.07.15.62-.25.48s-.85-.4-.79-1v-.04zM104.1 185c-.26.32.16 1-.42 1-.3 0-.43-.27-.36-.62s0-.83.43-.86c.23 0 .4.12.35.43v.05zm-.5-14.28a.48.48 0 0 1 .13-.7c.12.09.35.15.47.37s.07.63-.1.65a.63.63 0 0 1-.5-.32zm1.35 4.76a.64.64 0 0 1-.45 0c-.21-.07-.34-.24-.29-.39.05-.15.34-.05.55 0 .21.05.33.3.19.38v.01zm85.44 6.71c.05-.09.2-.12.27-.16.07-.04.24.18.16.31a.38.38 0 0 1-.29.14.19.19 0 0 1-.14-.29zm-3.86-20.13c.57-.82 1-.1 1.45-.48.61.26.44.73.06 1.16-.38.43-1.13 1.06-1.61.79-.48-.27-.29-.93.1-1.47zm-.29 9.08c-.48.59-1 .61-1.29.23a.79.79 0 0 1 .1-1 1.36 1.36 0 0 1 1.23-.6 1 1 0 0 1 0 1.38l-.04-.01zm-1.68-31.35a.27.27 0 0 1 .35-.23.35.35 0 0 1 .19.4c0 .22-.15.29-.34.31a.43.43 0 0 1-.2-.48zm.47 13.84c0 .18-.06.37-.26.4-.2.03-.17-.19-.15-.33.02-.14 0-.38.25-.38s.17.18.16.31zm-.63 7c.49-.4 1-.45 1.28-.05.13.18 0 .63 0 .94-.67.36-1.13.45-1.44.07a.68.68 0 0 1 .18-1l-.02.04zm-1.48 6.83l1.44-1.11.5.4a1.91 1.91 0 0 1-1.79 1.69c-.71.14.14-.79-.15-1v.02zm-.53-4.02c.09-.3.33-.48.54-.37.21.11.06.52 0 .83-.06.31-.41.45-.53.23a1.1 1.1 0 0 1 0-.69h-.01zm-1.27-72.72c.17-.15.39 0 .55.21a.68.68 0 0 1 0 .74.49.49 0 0 1-.59-.32c-.11-.25-.13-.5 0-.63h.04zm-.88 55.28l.62-.58.26.15a.89.89 0 0 1-.74.86c-.33.1 0-.36-.14-.43zm-1 5.1c.64.93.19 1.52-1 1.89-.59-.91.25-1.38 1-1.89zm-.93 13.21c1.19-.47.79.85.73 1.7-.55.54-1 .36-1.46.37a1.5 1.5 0 0 1 .73-2.07zm-3.4-23.94c.6 0 1.06.75 1.17 1.37a1.43 1.43 0 0 1-.25 1c-.41.34-.86 0-1.12-.27-.34-.58-.75-2 .2-2.11v.01zm.09 27.17l-.22.31-.12-.05-.11.15c-.41.47-.88.94-1.26.64-.38-.3.06-.79.42-1.13a3.38 3.38 0 0 0 .26-.27.77.77 0 0 1-.07-.16c0-.29.09-.48.22-.43.098.037.192.084.28.14a.86.86 0 0 1 .72-.3 1.22 1.22 0 0 1-.18 1 .84.84 0 0 1 .06.14v-.04zm-.27-3.55c.14 0 .19.11.22.24s0 .33-.13.41c-.13.08-.19-.12-.22-.24s-.06-.36.13-.41zm.43-.31c.08-.06.28 0 .42 0 .15.32.18.54 0 .69a.29.29 0 0 1-.42-.1c-.16-.24-.18-.49 0-.61v.02zm.23-5.09a.45.45 0 0 1-.6-.13c-.17-.19-.25-.4-.15-.56.1-.16.34-.14.54 0a.62.62 0 0 1 .21.66v.03zm-1.3-51.12c.19-.16.3.17.37.49 0 .51.22 1.28-.21 1.58-.2.13-.41-.26-.44-.6 0-.57-.06-1.17.28-1.47zm-.17 41.12c.14-.24.36-.52.56-.34.2.18 0 .6-.13.9-.13.3-.34.49-.57.36-.23-.13 0-.61.14-.92zm-.85-16.85c.18-.25.37 0 .54.2.08.66-.27.73-.51.9-.24.17-.46.23-.56-.13-.18-.68.32-.69.53-1v.03zM171.55 159c.13 0 .19.15.13.29a.52.52 0 0 1-.22.26c-.13.05-.19-.07-.18-.23.01-.16.09-.34.27-.32zm-1.06-30.24c.12-.17.26 0 .37.15.06.45-.19.5-.36.62-.17.12-.31.16-.38-.09-.13-.47.22-.48.37-.68zm-1.08-2.11c.09-.09.24.07.3.36a1.12 1.12 0 0 1-.45 1.05c-.14.12-.26 0-.27-.24-.055-.435.1-.87.42-1.17zm-2.5 4.24c.2 0 .31.11.35.28.04.17 0 .39-.21.41-.21.02-.2-.06-.25-.23a.47.47 0 0 1 .11-.46zm-54.51 9.26c.31-.13.56.06.76.35.2.29.22.56 0 .72-.22.16-.64 0-.86-.35a.57.57 0 0 1 .11-.72h-.01zm-.78 19c.4.37.75.84.57 1.2-.18.36-.65.23-1-.06-.58-.43-.08-.78-.35-1.09.18-.46.52-.34.82-.05h-.04zm-3.83-40.62c.17-.13.38 0 .53.23.15.22.15.51 0 .73a.48.48 0 0 1-.56-.34c-.1-.25-.11-.49 0-.62h.03zm-.29 38.42c.16-.28.53-.23.86 0a1 1 0 0 1 .38 1 .72.72 0 0 1-1-.17c-.28-.31-.43-.64-.28-.89l.04.06zm.81 15.19c.17-.13.4.07.58.24.18.17.29.3.18.44-.11.14-.41-.08-.59-.26s-.31-.32-.17-.42zm-2.07-8.81a.43.43 0 0 1-.19-.68c.16 0 .42-.11.63 0 .21.11.36.49.2.62a.67.67 0 0 1-.64.06zm1.57 26.52c-.21 0-.33-.18-.31-.45.02-.27.13-.44.35-.43.22.01.29.23.31.47.02.24-.14.44-.35.41zm.19-2.43c-.06 0-.24-.15-.24-.25 0-.46.17-.67.61-.68-.07.43 0 .81-.37.93zm1.29-10.27c-.23 1-.73 1.16-1.82.64a5.27 5.27 0 0 1-.81-2.08c.35-1.12.87-1.48 1.49-1a2.55 2.55 0 0 1 1.16 2.49l-.02-.05zm-1-10.33c.64-.49 1.06-.15 1.33.73-.63.44-1-.19-1.33-.73zm1.74-4.77c.13-.1.45 0 .67 0 .26.51.32.85 0 1.09a.45.45 0 0 1-.67-.13c-.28-.37-.33-.78-.05-1l.05.04zm.1 12.73l.23-.36a1.53 1.53 0 0 1 1.24 1.29c.14.51-.53-.1-.63.11l-.84-1v-.04zm2.43 14.59a1.06 1.06 0 0 1-1.66.65c-.47-.34-.26-.91-.26-1.27.17-.42.51-.89 1-.89.27-.1.48.06.69.23.306.352.394.843.23 1.28zm-.42-4.9c0-.38.64-.51.89-.19a.91.91 0 0 1-.89.19zm1.86-10.66c-.12.12-.37.16-.67-.07a1.09 1.09 0 0 1-.48-.89c.26-.29.61-.21.91 0 .3.21.46.71.24.93v.03zm.06-9.11c.2-.13.42.07.6.25s.28.32.15.46c-.13.14-.43-.08-.61-.26s-.3-.34-.14-.45zm.08-2.57c.1-.21.37-.06.59 0 .22.06.32.31.16.4a.66.66 0 0 1-.48 0c-.21-.06-.34-.25-.27-.4zm1.71 9.21c-.24.32-.56 0-.8-.32s-.79-.62-.73-1.05c.39-.12.74.12 1.07.42.33.3.67.66.46 1v-.05zm0-38.08c-.26.08-.28-.24-.3-.49-.02-.25-.17-.65 0-.85.26.09.35.36.4.65.05.29.09.62-.13.69h.03zm.54 33.31c-.34-.9.59-.61 1.19-.57.39.42.26.75.27 1.1-.5.42-1.27-.05-1.46-.53zm.9-22c.5 0 .67.61.78 1.12.11.51.13.88-.25 1-.5-.08-.68-.63-.79-1.15-.11-.52-.14-.94.26-1v.03zm1.16 26.97l-.67-.11c-.19-.21-.3-.44-.19-.62.11-.18.36-.16.6 0a.69.69 0 0 1 .26.71v.02zm1.15-.4l-.74-.22c-.4-.44-.79-.93-.69-1.39 0-.26.36-.05.62.16.28.46 1 .93.81 1.45zm-.69-47.86c-.44 0-.66-.54-.57-.87.18-.61.56-.08.86.18 0 .38-.16.5-.29.69zm.29 34.77c0 .26-.12.35-.21.48-.31 0-.46-.37-.39-.61.12-.42.39-.05.6.13zm.36-8.45c-.1-.32.19-.31.17-.51.2-.12.29 0 .32.21.03.21 0 .53-.13.61-.13.08-.3-.1-.36-.31zm.7 5.25c-.84-.65-.26-1.11-.26-1.64 0-.53.44-.36.84-.24.69.7.33 1.1.19 1.52-.14.42-.33.7-.77.36zm1-26.45c.11-.09.41 0 .62 0 .29.48.38.81.15 1-.23.19-.45.11-.65-.13s-.36-.74-.12-.92v.05zm1.27 45.63c0 .16-.06.34-.24.37-.18.03-.15-.18-.14-.3.01-.12 0-.36.24-.36s.15.16.14.29zm.09-4.39c-.57.32-.83-.39-1.08-.58 0-.32-.45-.64.06-.83.51-.19.9.38 1 .9l.02.51zm-.11-6.41c-.21.28-.7-.18-.91-.64-.35-.79-.65-1.63-.31-2.21.19-.33.51.09.77.5.18.76.92 1.72.45 2.35zm1.85 6.09c0 .25-.34.17-.54-.06a2.06 2.06 0 0 1-.55-1.77c0-.19.35-.14.69.16a1.68 1.68 0 0 1 .4 1.67zm-.49-18.65c-.51 0-.44-.49-.42-.92.55 0 .63.35.42.92zM123.7 136c.06-.2.2-.32.38-.26a.41.41 0 0 1 .22.44c0 .24-.17.31-.38.34a.49.49 0 0 1-.22-.52zm.56 23.63c-.36 0-.31-.34-.29-.64.37 0 .43.24.29.64zM124 144c0-.49 0-1 .72-.71.13.3.4.63.16.88-.24.25-.59.12-.88-.17zm.81 2.44c0-.31.14-.54.37-.54.23 0 .24.19.35.28-.06.37-.17.58-.41.6a.31.31 0 0 1-.31-.34zm.81 1.55c.06.16.05.29-.07.28a.51.51 0 0 1-.25-.2c-.09-.12-.08-.27 0-.32.08-.05.21.11.3.24h.02zm-.73 8.59c0-.22.1-.38.25-.38s.17.13.25.2c0 .25-.12.4-.29.41a.21.21 0 0 1-.21-.23zm.47 8.94c0-.53-.39-1.07 0-1.6 0 .41 0 .85.3 1.12a.51.51 0 0 1 .2.65c-.15.24-.3-.24-.51-.17h.01zm.46 2.52a.34.34 0 0 1-.31-.33c0-.19 0-.36.15-.41.15-.05.26.06.31.25a.45.45 0 0 1-.15.49zm.22-17.43c-.06.28-.31.44-.69.33a.48.48 0 0 1-.36-.62.8.8 0 0 1 .76-.14.36.36 0 0 1 .29.43zm.19 3.53c0-.4 0-.81.2-1 .2-.19.21.12.26.34.05.22.15.89-.15 1.1-.14.09-.29-.18-.31-.42v-.02zm.43 4.36c-.11.23-.18-.19-.29-.14v-.63l.21-.06a.65.65 0 0 1 .07.83h.01zm.99 4.19c-.3.06-.55-.26-.67-.68-.12-.42-.13-.88.22-1a.78.78 0 0 1 .73.58c.2.58.16 1.06-.28 1.14v-.04zm.82-18.19c.42.36.43.74.17 1a.52.52 0 0 1-.71-.07 1 1 0 0 1-.43-.92.67.67 0 0 1 1 0l-.03-.01zm-.19-7.99c.22-.25.44-.52.67-.09-.05.21 0 .5-.26.54-.26.04-.37-.18-.41-.45zm-.42 22.06c-.09 0-.2 0-.24-.23a.5.5 0 0 1 .1-.46c.2 0 .31.11.35.28.04.17 0 .4-.21.41zm2.42 27.08a.38.38 0 0 1 .11-.13l-.06.14-.05-.01zm.84-24.68a4.37 4.37 0 0 1-1.94-2.5.74.74 0 0 1-.16.66.23.23 0 0 0-.06-.12l-.2-.22c0-.78-.72-1.7-.09-2.35v.1h.14c.34-.16.68-.43.87.47l.08.21-.07.47c.06.21.19.52.15.6-.54 1 .09 1.39.62 1.87.27.25.52.54.79.82h-.15l.02-.01zM129.55 148c-.13 0-.29-.08-.35-.33a.69.69 0 0 1 .14-.66c.29-.05.45.15.51.4s-.07.57-.3.59zm.45 2c.09-.09.24.06.3.36a1.14 1.14 0 0 1-.46 1.05c-.13.11-.25-.05-.26-.25A1.36 1.36 0 0 1 130 150zm.58-8.47c.27-.18.4 0 .45.3.05.3.06.75-.18.87s-.44-.14-.53-.45c-.14-.46.27-.45.26-.72zm.75 14.94c-.12.08-.32.16-.39-.09-.13-.47.22-.48.37-.68.15-.2.26 0 .38.15.05.46-.19.5-.36.62zm.81-8c-.17.33-.26-.28-.42-.21v-.9l.31-.09a1 1 0 0 1 .1 1.2h.01zm.42 9.49c.33-.25.71.13 1-.2.29-.33.23-.37 0-.47a.64.64 0 0 1 .06-.18.35.35 0 0 0 .37-.15c0-.16-.07-.31-.1-.47-.03-.16 0-.29 0-.44a1 1 0 0 1 0-.17.43.43 0 0 1-.48-.16c0-.62.62-.48.76-.92l.2-.18.39-.14a.51.51 0 0 0 0 .09c.4.15.77.54 1.25.26a2.24 2.24 0 0 1-.74 1.42 2.08 2.08 0 0 0-.23.53.33.33 0 0 0 0 .1c-.187.21-.29.48-.29.76a.46.46 0 0 0-.1.26.25.25 0 0 1 .13.09 1.6 1.6 0 0 1-2.13-.06l-.09.03zm4.02-14.98c-.42.16-.81-.31-.82-.66 0-.66.52-.26.9-.11.16.35 0 .54-.08.77zm.22 10.31v.84l-.29.1a.89.89 0 0 1-.15-1.12c.13-.31.26.25.41.18h.03zm-.8-5.79c.23.07.26.3.16.55a.35.35 0 0 1-.39.22c-.19-.1-.19-.29-.13-.5.06-.21.19-.32.36-.27zm-.21 2.2c-.26.17-.52.36-.62-.08.09-.17.16-.43.36-.41.2.02.29.24.26.49zm-.87-9.16c-.16-.25-.28-.53 0-.81l.26.07c0 .2 0 .4.05.61-.14-.05-.19.36-.34.13h.03zm.16 12.92a.68.68 0 0 1-.11.64.43.43 0 0 1-.5-.35c-.1-.33 0-.54.25-.57.25-.03.29.05.36.28zm-1-7.18c-.17.11-.46.24-.56-.12-.18-.68.32-.7.53-1 .21-.3.37 0 .54.21.08.65-.27.72-.51.89v.02zm2.92 28.91c-.16-.14 0-.44-.25-.5.07-.08.07-.15.14-.16.08.22.25.51.11.66zm3.38-2.18l-.11-.09-.24-.4h.77c0 .38-.17.5-.42.44v.05zm.27-7.48v.7c-.13 3-.58 5.91-.93 8.85a24.92 24.92 0 0 0-.56 4.62 10.4 10.4 0 0 1-1.27-3.58 4.81 4.81 0 0 1-.07-1c.14-2.95-1.21-5.42-1.55-8.27-1.63-.88-2.89-3.93-1.92-5.58.11.65-.16 2.09.86 2a1.46 1.46 0 0 1 .19-1.17 1.49 1.49 0 0 1 .5-1.32c.06-.33 0-.6-.26-.58l-1.11.08a13.81 13.81 0 0 0 2.79-3.7.65.65 0 0 1-.12-.25c-.07-.33-.09-.7.13-.82a.25.25 0 0 1 .26 0 .93.93 0 0 0 0-.23c.21-2.09-.64-4.12-.7-6.2 0-1-.19-2.81.52-3.61.71-.8 1.35-.17 1.64.71.185.56.322 1.136.41 1.72a.47.47 0 0 1 .19.45l-.13.06c.073.694.107 1.392.1 2.09h.08a.46.46 0 0 1 .08.52.42.42 0 0 1-.17.16c.49 0 .45.43.45.83-.25 0-.4-.05-.47-.18 0 .89-.07 1.79 0 2.69h.19l-.05.3-.14-.24a10.62 10.62 0 0 0 1.22 5.17 2 2 0 0 1 .21 1.7v.19h-.08v-.05c-.59 1.31-2.5 2.15-2 3.83.13-.24.2-.17.18-.57-.09 1 1.79.16 1.12 1.19.147-.22.308-.43.48-.63.07-1.38.28-3 1.51-3.73.68 1.17-.64 2.65-1.51 3.73l-.07.12zm.28-19.52c.18-.26.26-.28.31-.23.58-.43 1.22-.81.55-1.76-.06-.08.08-.38.13-.58.05-.2-.07-.31-.11-.46a1.8 1.8 0 0 0 .08-.21c.17-.87.6-.59 1-.41h.17v-.1c.79.67 0 1.54 0 2.3l-.23.2a.23.23 0 0 0-.06.12.69.69 0 0 1-.23-.65 3.54 3.54 0 0 1-1.24 1.77c.06.11.16.19.39.08a.44.44 0 0 1-.68.15c-.2.13-.4.25-.61.36h-.17l.65-.57.05-.01zm.19-4.63c.2-.24.37-.1.5.13s.27.66.08.83c-.19.17-.44 0-.61-.24-.17-.24.12-.48 0-.72h.03zm.16-2.73c0-.58.39-.32.73-.1.08.34.06.64-.21.66-.27.02-.37-.33-.52-.56zm1 .89c.43 0 .49.57.7.86.05.22.07.45-.12.42-.36-.06-.55-.42-.7-.78-.09-.21-.07-.51.12-.5zm1.27-4.31h-.19c-.18-.35-.46-.7 0-1.07.32.33.1.76.22 1.12l-.03-.05zm-1.14 16.86a.61.61 0 0 1 0 .69.46.46 0 0 1-.54-.3c-.1-.23-.12-.46 0-.58a1.88 1.88 0 0 1 .07-1.69c.08-.15.34 0 .54.34a1.5 1.5 0 0 1-.13 1.5l.06.04zm-.87 8.42c-.16-.21-.27-1.1-.74-1.52l.23.21c-.1-.51.87-.41.32-1-.07.15-.22.09-.36.17.33-.76 1 .17.91.54-.38-.2-.49.55-.62.78.37.05.83.4.26.87v-.05zm.07-13.14l-.11-.1a.49.49 0 0 1-.28.33l-.23-.13v-.29a.22.22 0 0 1-.26-.21c.105-.01.209-.03.31-.06.11.08.27-.3.36 0 .16 0 .26.14.14.5l.07-.04zm.06 8.33l-.05.45-.17-.29.22-.16zm-.41-5.16h-.08v-.37h.07l.01.37zm-.22 1.42l-.13.45-.16-.14.29-.31zm-.29-1.25l.1.44-.17-.29.07-.15zm.28 1.86c.312.302.435.75.32 1.17-.13.26-.32.36-.41.24a1.34 1.34 0 0 1-.26-1.26c.05-.19.22-.3.35-.15zm.26 4.34l-.27-.88c.6.12.16.22.27.88zm-.32-.29a.27.27 0 0 1-.14.42c-.09 0-.26-.09-.33-.21s0-.39.11-.4a.44.44 0 0 1 .36.19zm1.45-8.77a.46.46 0 0 1 0-.48.25.25 0 0 1 .32-.13.31.31 0 0 1 .16.47.33.33 0 0 1-.46.14h-.02zm-2.04.67c.18.13.13.4 0 .62-.13.22-.21.28-.4.09 0-.18-.28-.26-.11-.54.17-.28.33-.29.47-.17h.04zm-.66 7.13c1.1-.28.26.73.5 1.09 0-.15-.37-.06-.31-.36h.14l-.33-.73zm.68 1.67l-.23-.06-.17-.26.4.32zm-.59-11.57c-.28.11-.65.37-.71-.08a.43.43 0 0 1 .56-.45c.08.16.23.29.15.53zm2.33 11.25a.27.27 0 0 1-.18.12c0-.13.06-.12.18-.12.15-.2 0-.56.39-.28 0 .3-.23.29-.39.28zm.71 19.35a.27.27 0 0 1-.2-.3c0-.07 0-.17.09-.17.121.03.2.147.18.27a.59.59 0 0 1-.07.2zm-.08-19.68a.5.5 0 0 1-.42-.42c-.08-.38 0-.67.27-.69.27-.02.33.21.37.47.04.26 0 .57-.22.64zm.73-3.66a7.11 7.11 0 0 1-.25-1.75c-.1 0-.19.23-.3 0a.35.35 0 0 1 0-.26c.16-.07.21.14.27.3h.14a7.65 7.65 0 0 1 .11 1.78l.03-.07zm.96 27.76v-.22h.07v.22h-.07zm1.78-10.91a.19.19 0 0 0-.18 0c-.13.12-.32-.14-.52-.57a1.93 1.93 0 0 1-.41-.12c-.3.69-1.11-2.3-1.38-2.68l-.09.06c0-.12.05-.12.09-.06a.47.47 0 0 1 .61 0 .75.75 0 0 1 .07.12 2.25 2.25 0 0 0-.05-.22c0-.44.63 1.79 1.15 2.9.27.02.54.02.81 0l-.12.54.02.03zm-2.11-8.38c-.11.48-.22 1-.37 1.62-.18-.75.23-1.15.37-1.62zm.08-26.43a1.19 1.19 0 0 1 .21-.93l.16-.06c-.1-.26-.13-.5.07-.62a.51.51 0 0 1 .51.3c.15.32.17.59 0 .7.138.189.265.386.38.59.1.32.18.64-.12.91-.29.41-.59.73-1.07.23-.2-.36-.06-.75-.09-1.12h-.05zm3.44 1.68c0 .2-.14.35-.3.23a1.16 1.16 0 0 1-.61-1.05c.06-.28.22-.43.34-.34.37.27.582.703.57 1.16zm-.39-13.55c.21-.06.34.18.44.38.1.2.14.36 0 .44-.14.08-.35-.19-.45-.4-.1-.21-.15-.37 0-.42h.01zm.08 19.15a.24.24 0 0 1-.27.21.3.3 0 0 1-.28-.4.32.32 0 0 1 .4-.26.42.42 0 0 1 .15.45zm-.5-14.43a.44.44 0 0 1-.28.18c-.15 0-.16-.12-.11-.27.05-.15.18-.3.35-.23a.2.2 0 0 1 0 .32h.04zm-.3 2.32c.12-.06.24-.11.24.11-.2.1-.14.59-.55.36.1-.16.2-.32.31-.47zm.25 8.52a1.26 1.26 0 0 1-.1.38c-1.05.14-.19 1.15-.71 1.53a1.22 1.22 0 0 1-.85-.78c-.2-.25-.09-.66-.14-1-.05-.34.12-.43.29-.32a.76.76 0 0 1 .18.22c.41-.5.86-.44 1.33-.07v.04zm-1.16-14.47c-.18.14-.4-.22-.44-.54-.08-.53-.12-1.09.2-1.39.32-.3.29.14.38.44 0 .49.26 1.19-.14 1.49zm0-6.8c-.44.19-.33-.2-.38-.38-.05-.18 0-.57-.34-.65v-.14a.52.52 0 0 1 .25-.31.46.46 0 0 1 .41 0c0 .26.11.53.17.79.06.26-.07.45-.1.68l-.01.01zm-.07 11.53c.11.39.19.82-.11.95s-.41-.3-.46-.62c-.05-.32-.31-.85-.05-1.16.36.1.51.45.62.83zm-.68 22.91h.06c.06-.15.15-.24.31-.21s.24.24.3.45l.06.22c-.19.56-.46.21-.73-.09v-.18-.21.02zm.3 15.11v-.09.1-.01zm1.14-11.68l-.31.53c-.42 0-.63-.39-.68-1 0-.33.09-.68.37-.74.27.12.29.58.51.76 0-.49.4-.28.49-.6.012.074.029.148.05.22a1.2 1.2 0 0 1-.43.79v.04zm-.46-5.81a1.1 1.1 0 0 1-.79.15.82.82 0 0 1-.49-.62v-1.13c.33-.37.65-.75 1-1.13 2.14.66 1.29 1.68.32 2.71l-.04.02zm1.44-2.69l.38-.08c.33.11.6.24.16.67-.27-.13-.64.43-.85 0-.11-.24.15-.41.31-.56v-.03zm1.18-15.74a.57.57 0 0 1 .36-.08.41.41 0 0 1 .23.28v.52c-.14.17-.28.35-.43.52-1-.28-.6-.75-.17-1.23l.01-.01zm-.01-11.66c.1 0 .26.09.39.14 0 .35 0 .57-.19.66a.29.29 0 0 1-.38-.22c-.09-.28 0-.52.18-.58zm5.18-.09c.22-.25.41-.1.54.15.13.25.3.71.09.9-.21.19-.47 0-.65-.26-.18-.26.12-.52 0-.79h.02zm-.33 20.78a.36.36 0 0 1 .32-.31c.21 0 .26.24.25.46-.01.22-.1.35-.27.35s-.33-.23-.3-.5zm-.06-1.69c.2-.22.41-.48.62-.07 0 .19 0 .45-.25.49-.25.04-.33-.17-.37-.42zm.11-3.62c-.11 0-.28 0-.41-.18a.65.65 0 0 1-.06-.65.42.42 0 0 1 .57.21c.18.3.11.53-.1.62zm-.7 20.52l-.16-.61A5.44 5.44 0 0 1 153 151a.81.81 0 0 1 .09.1c.169-.287.43-.51.74-.63.45.05.69.41.86.85a.75.75 0 0 1-.93.79 3 3 0 0 1-1.07 3.24l-.02-.01zm-.65-5.54l-.12-.45c.203-.32.542-.53.92-.57 0 0 .15.23.12.32a1 1 0 0 1-.92.7zm1.05-2.44a.91.91 0 0 0-.27.63c.1.55-.42.29-.52.58-.35 0-.58-.17-.78-.46a.72.72 0 0 1 .82-.72c.26-.21.54-.9.75 0v-.03zm-1.66-3.57c-.2-.4-.14-.63.3-.61 0 .29.12.61-.3.61zm-.64-29.47c.48-.16.66.12.64.7-.47.14-.54-.31-.64-.7zm.17 28.85a.43.43 0 0 1-.42.58c-.12-.14-.3-.23-.28-.48.24-.17.53-.52.7-.1zm-1.42-7l-.12-.61c.79-.42 1.05 0 1.08.71a.65.65 0 0 1-1-.1h.04zm-.13 4.22c-.06.21-.24.37-.41.29-.17-.08-.23-.35-.19-.59.04-.24.12-.32.36-.2 0 .19.33.19.24.5zm-1.39 4.76c.47-.19.76-1 1.38-.74-.11.52.2.51.48.53.28.02.5-.11.7.12l.16.08.27.27a2.76 2.76 0 0 0 0 1.75c.15.25-.13.4-.15.61h-.09v.09a9.57 9.57 0 0 1-.23 1.09 3 3 0 0 0-.15.31c.09.36.27.73-.12 1.06-.39.33-.56-.17-.84-.24-.12 0-.24-.08-.35-.06l-.14.09v.09c-.2.27.18 1-.46.89-.25 0-.74-.17-.5-.56.33-.54 0-.94.1-1.39-.22-.42.17-.69.25-1a1.41 1.41 0 0 1 .72-.34l.12-.33c.07-.65.05-1.25-.51-1.55-.44 0-.74-.09-.57-.74l-.07-.03zm2.36 13.38c-.4.26-.52-.06-.53-.41 0-.19.2-.44.35-.41.41.09.25.49.18.82zm-.93-5.6a.57.57 0 0 1 .36-.46c.17-.09.34-.15.46.08.12.23-.1.57-.27.81-.27 0-.56 0-.55-.43zm-1.43 3.3c-.16.11-.34.22-.46 0s-.52-.37-.28-.78c.12-.21.34-.06.45 0 .11.06.44.3.29.72v.06zm2.09 13.62c0 .71.08 1.45-.51 2-.36.2-.68.22-.93-.17a4.58 4.58 0 0 1-1.38-1.87c-.22-.71-.38-1.42.29-2 .65-.88 1.34-1.55 2.35-.44.43.8.09 1.64.14 2.47l.04.01zm1.67 10.82h-.3v-.15l.3.15zm.87-16.17c-.24.56-.83.79-1.29 1.1-.46.31-.44-.51-.8-.29l-.24-.28c-.22-.45-.72-.31-1-.56a2.34 2.34 0 0 0 .15-.27 2.71 2.71 0 0 0 1.57-.36l.15-.16h.83c.1.4.75.46.6.82h.03zm1.32-4.75a1 1 0 0 1-.17.52.83.83 0 0 0 .14-.5l-.14.11a1 1 0 0 1-.88 0c-.11-.58-.23-1.16-.34-1.74v-.11a2 2 0 0 1-.25-.58 3 3 0 0 0-.3.32 6 6 0 0 0-.39.69.37.37 0 0 0 0 .18l.46.42-.52-.2a3 3 0 0 0 .47 2c.35-.39 1.14-.73 1.54-.15-.64.55-1.89.68-2.09-.49a2.12 2.12 0 0 1 .16-1.74c.08-.255.212-.49.39-.69l.27-.42c.07-.2.1-.52.28-.43.07-.15.14-.3.2-.45a.87.87 0 0 1 .21.17c.76-.23.56.54.64.9.038.225.062.452.07.68V158l.17.51-.19-.12a.86.86 0 0 0 .16.35.2.2 0 0 1 0-.08v.11a.83.83 0 0 0 .45.24v.3a1.09 1.09 0 0 1-.4.54l.06-.1zm.34-3.4v-.14a6.66 6.66 0 0 0 0-1.34v-.08a.33.33 0 0 0 .45.13 1.06 1.06 0 0 0 .1.66l-.51.77h-.04zm.36-11.4c-1.89-.52-1.71-1.53-.66-2.75.88.17 1.45.61 1.39 1.61-.25.38-.49.76-.73 1.14zm0-17.67c.19-.12.28 0 .32.21.04.21 0 .53-.13.61-.13.08-.31-.1-.37-.32s.19-.31.18-.5zm1-1.24c.13-.11.21.12.26.34.05.22.15.89-.15 1.1-.14.09-.29-.18-.31-.42 0-.39 0-.81.2-1v-.02zm2.73 17.6l-.38.36c-.49-.07-.51-.71-.7-1.14.06-.19.11-.37.17-.55.06-.18 0-.23.05-.34.26-.06.46.22.68.42a1.3 1.3 0 0 1 .11.9c.021.062.038.126.05.19l.02.16zm-1.25-20.54c-.26-.06-.27-.46-.34-.74.23-.58.5-.2.76.15 0 .36-.15.66-.42.59zm.14 6.64c.26.56 0 .72-.21.95-.21.23-.35.34-.54.05-.36-.55.08-.71.19-1 .11-.29.34-.12.56 0zm-.79 7.77c.09.4.19.8.28 1.2-.09.28-.19.55-.54.23.14-.46-.73-1.11.26-1.43zm-.74-28.65c-.18-.27-.31-.57 0-.88l.28.08c0 .22 0 .44.05.66-.14-.06-.2.39-.36.14h.03zm-.25 41.14l.06-.18a1.05 1.05 0 0 1 .08-.88c.24-.18.45-.44.77-.38 0 .11 0 .22.08.33.08.11.16.36.23.54-.19.42-.18 1-.76 1.09l-.46-.52zm.09 28.44a.3.3 0 0 0 0-.08v.08zm.5-.69v-.05.05zm0-.05v-.06V177.7zm.28-3.8c-.13-.44-.58-.06-.58-.25.19-.13.45-.19.58.06v.19zm-.26-20.95c.019-.13.06-.254.12-.37 1.05-.12.21-1.15.74-1.53.92.4 1.12 1 .51 1.83-.43.54-.89.46-1.37.07zm2.33 14.37c-.41-.1-.36.56-.71.69l-.42-.7c.85.7-.19-.75.67-.75.41.1.5.39.61 1l-.15-.24zm.2-44.35c-.52 0-.44-.49-.42-.92.54 0 .62.35.42.92zm-.2-9.89a.47.47 0 0 1-.22-.52c0-.2.2-.32.38-.25s.23.23.21.44c-.02.21-.16.31-.37.33zm.73 21.61c-.08-.4-.15-.81-.22-1.21.11-.28.22-.54.55-.2-.16.46.67 1.15-.33 1.41zm-.15-3.17c.16-.41.34-.14.53.1 0 .25-.1.46-.3.41-.2-.05-.18-.32-.23-.51zm.54-4.42c-.38.09-.4-.38-.41-.74-.01-.36-.21-1 .11-1.24.38.15.49.55.55 1 .06.45.09.91-.25 1v-.02zm.48-8.05c-.21 0-.33-.24-.35-.53-.02-.29 0-.6.26-.66a.52.52 0 0 1 .41.48c.07.4 0 .71-.32.71zm.95-5.44a.27.27 0 0 1-.3.22.33.33 0 0 1-.29-.44.34.34 0 0 1 .43-.28.5.5 0 0 1 .16.5zm0-15.62c-.16 0-.26-.14-.33-.29-.07-.15-.12-.28 0-.32.12-.04.25.14.32.29.07.15.11.26 0 .32h.01zm.34 31.31c-.15 0-.23-.17-.25-.37-.02-.2 0-.42.19-.46a.37.37 0 0 1 .28.33c0 .28 0 .49-.22.5zm.4-26.55c.11 0 .3 0 .42.13a.29.29 0 0 1 0 .45.5.5 0 0 1-.44-.1.3.3 0 0 1 0-.48h.02zm.07 5.79c0-.23.14-.47.31-.35a1.2 1.2 0 0 1 .32 1.09c0 .25-.19.53-.36.43-.4-.24-.2-.79-.27-1.17zm-.07 9.47a.29.29 0 0 1 .18-.44c.09.06.27.11.34.25a.27.27 0 0 1-.15.41.48.48 0 0 1-.37-.22zm1.32 14.18v-.25a.34.34 0 0 1 .3.12 1.34 1.34 0 0 1 .35 0V132c.12-.43.39-.06.6.12a.45.45 0 0 1-.09.33.55.55 0 0 1 .1.22c0 .38.05.75.07 1.13l-.95 1.15c-2.16-.62-1.33-1.65-.39-2.71l.01-.05zm1.18-12.39a.31.31 0 0 1-.31-.35c0-.31.14-.54.37-.53.23.01.23.18.34.27-.06.38-.16.59-.4.61zm.12 3.3c0 .38-.16.5-.3.7-.43 0-.66-.54-.56-.88.18-.61.56-.08.86.18zm-.37-14.71c-.43.16-.82-.31-.83-.67 0-.65.52-.26.9-.1.16.35 0 .53-.07.77zm-.82-15a.51.51 0 0 1-.31.2c-.15 0-.17-.13-.11-.3.06-.17.2-.32.37-.24a.21.21 0 0 1 .05.34zm-.32 35.07c.07.14 0 .28-.09.29a.35.35 0 0 1-.26-.16.19.19 0 0 1 .12-.3c.06 0 .19.07.23.17zm-.7 7.77c.13-.88.41-.17.64.06.35 0 .63.18.73.77-.15.29-.34.5-.64.44-.1-.3-.53 0-.47-.61a1.12 1.12 0 0 0-.26-.66zm.2 1.79c0-.09 0-.33.09-.33.31 0 .57.29.81.62 0 .15 0 .31-.08.46a1.05 1.05 0 0 1-.82-.75zm.87 16.54a1.44 1.44 0 0 1 .12-1.35c.26-.4.3.06.39.32-.08.44-.16.89-.51 1v.03zm.84.2c-.08-.34-.23-.75.11-.82.12 0 .32.23.32.43 0 .36-.07.68-.43.39zm-.94-13.38c-.08-.44-.17-.88-.25-1.33 1.73-.91 2.29-.05 2.37 1.55a1.43 1.43 0 0 1-2.12-.22zm2.3-19.38c.16 0 .2.2.22.37.02.17 0 .28-.1.3-.1.02-.2-.21-.22-.38-.02-.17 0-.3.1-.29zm-.12-5.73a.47.47 0 0 1-.44-.48c0-.27 0-.51.21-.58.21-.07.37.09.44.36a.65.65 0 0 1-.21.7zm.23-5.1c-.17.11-.36.33-.55.21-.19-.12-.15-.38 0-.6.33 0 .68-.09.55.39zm-.18 14.45v-.9l.31-.09a1 1 0 0 1 .1 1.2c-.16.32-.26-.28-.42-.21h.01zm.54 6c-.11.23-.18-.19-.29-.15v-.62l.21-.06a.66.66 0 0 1 .07.83h.01zm-2.24-44.3a1 1 0 0 1-1.48-.18c-.23-.32-.43-.66-.65-1-.22-.34-.27-.44-.44-.1-.07.14-.14.29-.22.43a1.88 1.88 0 0 1-.59.72c-.74.49-.8-.84-.91-1.26a6.13 6.13 0 0 1-.32-1.47c.03-.839.12-1.674.27-2.5a3 3 0 0 1 .4-1c.26-.49.71-.84.81-1.41a5.68 5.68 0 0 0-.27-2.08c-.3-1.28-1.11-2.46-1.25-3.77a6.9 6.9 0 0 1 .18-1.58c.08-.65.17-1.29.24-1.93.52-4.68 1-10.63-.68-15.21a8.7 8.7 0 0 1-.27-3.18 10.66 10.66 0 0 0-1.13-5.8c-1-1.66-4.11-2.53-5.93-2.26a9.71 9.71 0 0 0-5.22 2.57 20.46 20.46 0 0 0-5.87 11 24.89 24.89 0 0 0-.38 2.73 31.28 31.28 0 0 0 .35 7.23c.12.89.35 1.77.56 2.65 0 .13.15.85.37.83.22-.02-.38-3.33-.41-3.64a23.4 23.4 0 0 1-.18-7.28c.183-.897.42-1.782.71-2.65a23.4 23.4 0 0 1 2-4.49c1.13-1.94 2.38-4.1 4.85-5.41 2.29-1.22 6-1.93 7.44-.24.656.808.99 1.83.94 2.87a17.12 17.12 0 0 0 .06 4.05 38.6 38.6 0 0 1 1.23 10.5 111.84 111.84 0 0 1-1.64 13.41 60.66 60.66 0 0 0-.94 8.59c0 1.277.11 2.552.33 3.81.23 1.33.78 2.74.87 4.08.08 1.09-.57 2.23-.85 3.29a26.2 26.2 0 0 0-.73 4c-.19 1.9-.39 3.86-1.73 5.35-1.17 1.3-3 3.08-4.68 3.61a59.75 59.75 0 0 1-6.12 1.58 2.42 2.42 0 0 1-.76 0 .58.58 0 0 1-.39-.21 1.7 1.7 0 0 1-.39-1.58 31.72 31.72 0 0 1 3.6-8.14A22.31 22.31 0 0 0 146.7 98c2.52-6.21 2.63-12.36 1.75-18.9-.48-3.48-1.8-6.68-2.76-10a17.13 17.13 0 0 1-.84-4.59c.05-.824.02-1.652-.09-2.47 0-.12.05-.7-.06-.62a27.3 27.3 0 0 0-.73 5.19 31.85 31.85 0 0 0 1.42 7.4c.58 2.23 1.88 4.53 1.54 6.91-.17 1.18-.88 3.39-2.07 2.76-1.83-1-3.07-1.37-6.32-.28a13.74 13.74 0 0 0-4.8 3 10 10 0 0 1-2.36 1.73 3 3 0 0 1-1.38.33 2.39 2.39 0 0 1-1-.18.47.47 0 0 1-.24-.26c-.1-.32.22-.75.33-1 .11-.25.27-.72.39-1.09 1-3.21.4-6.31-2.67-9.06a12.09 12.09 0 0 0-2.44-1.72c-.1 0 .31.34.39.4.08.06.62.82.78 1 .302.314.582.648.84 1a7.9 7.9 0 0 1 1.72 5.7 10.36 10.36 0 0 1-1 3.22 16.17 16.17 0 0 1-.89 1.64c-.28.46-.75.93-.43 1.48.175.264.366.518.57.76a13.83 13.83 0 0 1 2.4 6.61 37 37 0 0 1-.11 5.37c-.19 3.77 0 8.21 1.91 11.58a28.63 28.63 0 0 0 2.73 3.5c.87 1.1.77 2.48 1 3.79a17.36 17.36 0 0 0 3.49 7.27 67.86 67.86 0 0 1 4.43 6.43c1.18 2-.36 2.82-2.19 3.37-2.62.8-5.63-.74-7.44-2.65a17.85 17.85 0 0 1-3.84-6c-.92-2.49-1-5.11-2-7.59a15.71 15.71 0 0 1-.6-1.75 67.13 67.13 0 0 0-4.37-10.22c-1.37-2.81-3-5.49-4.42-8.26a31.11 31.11 0 0 1-2.34-5.49 26.88 26.88 0 0 1-.68-6.06 12.23 12.23 0 0 0-.64-3.17c-1.08-3-.15-6.69 1.47-9.38a6.83 6.83 0 0 0 .57-1.19 3.13 3.13 0 0 1 1.2-1.46c.32-.22.8-.5 1.14-.69.34-.19 1.81-.5 1.12-.54-.13 0-1.2.05-1.32.08a3.84 3.84 0 0 0-3.19 2.56 2.3 2.3 0 0 1-.16-1.38 7.5 7.5 0 0 1 1.84-2.65 14.32 14.32 0 0 1 2.76-2.09 43.87 43.87 0 0 1 4.24-2.09c1.45-.59 2.94-1.08 4.36-1.72a24 24 0 0 0 5.41-2.92 11.06 11.06 0 0 0 2.65-3.61c1.54-2.94-.27-.5-.88.1a25.87 25.87 0 0 1-3.15 2.46c-.33.25-1.09.84-1.46.34a1.64 1.64 0 0 1-.16-1.07 19.14 19.14 0 0 1 .45-2.23c.05-.22.08-.45.11-.68a15.26 15.26 0 0 0-.07-3.51c-.11-1.21-.27-2.42-.35-3.62a7.91 7.91 0 0 1 .26-3.21 4.87 4.87 0 0 1 1.65-2.28 10.78 10.78 0 0 1 3.1-1.89s.23-.09.23-.17c0-.08-.06 0-.1 0a3.13 3.13 0 0 0-.52.16 27 27 0 0 1-3.56.83 3.66 3.66 0 0 1-1.4 0 1.34 1.34 0 0 1-1-.7 2 2 0 0 1-.2-.48c0-.08-.1-.39-.18-.18l-.05.31a10.27 10.27 0 0 0 .1 1.61c.023.149.067.293.13.43a11.74 11.74 0 0 1 .08 4.76 23.78 23.78 0 0 0 .18 4.3 17.53 17.53 0 0 1-.37 5.5c-.21.86-.18 1.75-.34 2.62a1.07 1.07 0 0 1-.15.39c-.31.57-1.18.84-1.7 1.1a32.85 32.85 0 0 1-3.42 1.59 7.71 7.71 0 0 1-.92.32.5.5 0 0 1-.5-.47c.14-1 .8-1.42.67-2.44a28.6 28.6 0 0 1-.14-3.46c0-2.53 1.07-4.91 1.15-7.47a22.75 22.75 0 0 0-.42-2.69 12.26 12.26 0 0 1 0-4 7.48 7.48 0 0 1 2.6-4.3c1.07-.8 1.75-.51 2.52-.88a15.24 15.24 0 0 1 3.48-1.55 17.53 17.53 0 0 1 5.78-.91 10.72 10.72 0 0 1 2.56.54c-.44-.61-.63-1.75-2.55-2.13-.68-.13-1.37-.17-2.08-.26a.62.62 0 0 1-.49-.5 1.35 1.35 0 0 1 .23-1.38 1.82 1.82 0 0 0 .48-1.2 6.53 6.53 0 0 1 .87-2.92 14.07 14.07 0 0 1 2-2.47 4.82 4.82 0 0 1 2.45-1.57 1.45 1.45 0 0 0 .53-.31c.15-.12.22-.28.37-.4a.62.62 0 0 1 .39-.11.61.61 0 0 1 .38.11c.15.12.22.28.37.4.149.14.326.246.52.31a4.8 4.8 0 0 1 2.46 1.57 14.07 14.07 0 0 1 2 2.47 6.53 6.53 0 0 1 .87 2.92c.008.445.179.872.48 1.2.328.381.416.913.23 1.38a.62.62 0 0 1-.49.5c-.71.09-1.56.13-2.24.26-2.09.42-2 1.73-2.53 2.29a3.8 3.8 0 0 0 .49-.13 9.45 9.45 0 0 1 2.27-.57 17.59 17.59 0 0 1 6.14.91 14.8 14.8 0 0 1 3.48 1.55c.77.37 1.45.08 2.52.88a7.43 7.43 0 0 1 2.6 4.3 12.52 12.52 0 0 1 .32 4.09v.07c-.12.7-.28 1.41-.36 2.11-.14 1.17.57 2.38.9 3.46a23.41 23.41 0 0 1 .52 7.17c0 .9.43 1.38.67 2.2.285.899.515 1.814.69 2.74a15 15 0 0 1 0 5.63 12.39 12.39 0 0 0 .11 4.46 8.74 8.74 0 0 0 .83 2.2l1.07 3.73a14.17 14.17 0 0 1-2.63 3.15l-.02.04zm-21.79 36.31c-.42-.17-.52-.45-.25-.83.27-.38.4-.22.62-.05a.48.48 0 0 1-.05.17c-.48.07-.08.53-.32.71zm-.5-9.72c0-.6.48-.24.83-.09.15.32 0 .49-.07.7-.39.15-.75-.28-.76-.61zm.63 6c-.27 0-.36-.24-.32-.53a.37.37 0 0 1 .35-.38c.22.05.28.26.27.5-.01.24-.11.38-.29.37l-.01.04zm-1.52-29.21a.39.39 0 0 1 .34-.34c.23.06.28.26.27.5-.01.24-.11.38-.29.37-.18-.01-.36-.24-.32-.53zm-3.63 9.67c0 .21-.21.32-.32.27a.45.45 0 0 1-.2-.36.28.28 0 0 1 .36-.28c0 .1.17.22.16.37zm29.79 36c0-.61.27-.55.53-.43l.18.28c0 .22 0 .51-.18.64-.42.23-.28-.43-.53-.49zm.92 8.7c-.16-.25-.41-.46-.27-.84.08-.23.24-.16.38-.06a.62.62 0 0 1 .33.48c0 .45-.21.44-.44.42zm1 14.68l-.41-1.66a3.18 3.18 0 0 1 .41 1.66zm-.26-37.48c-.13 0-.29-.07-.36-.32a.71.71 0 0 1 .15-.67.45.45 0 0 1 .51.4c.08.36-.07.57-.3.59zm.14-2.22c-.21.1-.44-.14-.53-.45-.09-.31.27-.45.26-.72.27-.18.4 0 .45.3.05.3.06.75-.18.87zm.58 18.16c.69-.15 1.2.57 1.71 1.13-.05.63.32 1.1-.16 1.74a1.05 1.05 0 0 1-1.29 0 2.9 2.9 0 0 1-.26-2.87zm1.72 6.61c-.24.05-.36-.17-.4-.44.22-.25.44-.52.67-.09-.05.21-.05.5-.27.53zm.28 1.54c0 .21-.11.39-.29.38-.18-.01-.36-.24-.32-.54a.36.36 0 0 1 .34-.33c.22 0 .28.25.27.49zm-.12 15.86c-.07.4-.17.83-.5.81-.33-.02-.25-.44-.16-.76s.08-.89.44-1.07a1 1 0 0 1 .22 1v.02zm-1.56-7.64a3.85 3.85 0 0 1 .36-2.42c.94-1.1 1.33.31 1.34 1.15.01.84-1.5 2.89-1.7 1.27zm1.7-18.26a.42.42 0 0 1-.25-.2c-.09-.12-.09-.27 0-.32.09-.05.21.12.3.24s.05.3-.07.28h.02zm.93 29.74c-.16.11-.39 0-.56-.21-.17-.21-.3-.48-.14-.66a.49.49 0 0 1 .57.14c.26.28.36.56.13.73zm.34-9.56c-.13 0-.29-.08-.35-.32a.71.71 0 0 1 .14-.67.45.45 0 0 1 .51.4c.08.36-.07.57-.3.59zm.43 7.81a.27.27 0 0 1-.1-.43c.11 0 .27-.07.4 0s.21.32.11.4a.45.45 0 0 1-.41 0v.03zm.28 7.87l.17-.95c.28-.27.58-.41.82-.26.24.15.2.52 0 .85a.88.88 0 0 1-.95.36h-.04zm2.47.51c-.62.39-1.25 1.38-1.94 1.13l.31-1.05c.59-.56 1.25-1.1 1.85-1 .34.08.06.51-.22.88v.04zm.61-18.58c-.16.11-.46.23-.55-.12-.19-.68.31-.7.52-1 .21-.3.38 0 .54.21.09.65-.26.72-.51.89v.02zm.44-18.71a.21.21 0 0 1-.22-.23c0-.22.1-.38.26-.38s.16.13.24.2c0 .26-.12.4-.28.41zm3 36.86a2.14 2.14 0 0 1-2.21.55c-.34-.09-.23-.49.07-.77a2.57 2.57 0 0 1 2.36-.75c.25 0 .17.49-.22 1v-.03zm1-14.35a1.05 1.05 0 0 1-.54-1.27c.13-.55.39-1 .79-.95.4.05.65.47.61 1a1.23 1.23 0 0 1-.86 1.17v.05zm.71 9.11c-.13-.31.11-.62.34-.87.23-.25.46-.41.6-.19.14.22-.1.6-.34.85-.24.25-.42.39-.6.21zm1.8 21.35a2.14 2.14 0 0 1-1.09-1.89c.06-.57.31-.89.5-.74a2.6 2.6 0 0 1 1.05 2.12c0 .38-.18.7-.46.51zm-.1-8.91c0-1.68 2-3.61 3.84-5.27l-3.84 5.27zm1.1 2.13c0-.32 0-.71.34-.75.34-.04.27.28.26.53-.01.25-.06.66-.35.77-.29.11-.26-.31-.25-.55zm.82 10c-.61-.33-.37-1.37-.51-2 .06-.42.16-.87.43-.68.5.34.57 1.12.58 1.88 0 .44-.22 1-.5.84v-.04zm1.41-.6a.86.86 0 0 1-.38-.88c.06-.37.27-.62.54-.54.27.08.36.38.36.74a.62.62 0 0 1-.52.68zm1.32-4.29a.28.28 0 0 1-.12-.44c.17-.18.38 0 .57.1.19.1.22.34 0 .41a.76.76 0 0 1-.48-.07h.03zm1.37.89c0 .46 0 1.07-.46 1-.46-.07-.45-.7-.41-1.26.04-.56.16-1.09.63-1.32.44.36.23 1 .24 1.61v-.03zm-1.94-5.27c-.47 0-1.21-.15-1-1 .46-1.65 1.49-1 2.26-1.28.77-.28.78.5.84 1.19-.64 1.46-1.43 1.11-2.13 1.12l.03-.03zm1.92-5.7c-.1.22-.24.5-.48.3s-.08-.46.08-.7c.16-.24.33-.45.64-.4.15.29-.12.54-.24.8zm2.13 16.51a.6.6 0 0 1-.46.34c-.17 0-.35-.24-.24-.52.11-.28.3-.28.41-.38a.39.39 0 0 1 .29.56zm1-20.52c-.19.33-.47.56-.72.44-.25-.12-.3-.59 0-1a.71.71 0 0 1 .76-.34c.26.21.18.57 0 .94l-.04-.04zm-.28-21.61c-.08-.31-.86.15-.66-.44.2-.59.55-1.24 1.44-1.06l.21.57-1 .93h.01zm1.3 13.3c-.42-.51.09-.78.22-1.14.13-.36.38-.2.63-.09.3.54 0 .78-.23 1.06s-.4.44-.62.17zm1.54 25.92c-.15.24-.4.12-.52-.12a1.91 1.91 0 0 1 .07-1.81c.1-.18.39-.09.62.24a1.65 1.65 0 0 1-.17 1.69zM198 182a.33.33 0 0 1-.31-.33c0-.19 0-.36.15-.41.15-.05.25.07.3.26a.45.45 0 0 1-.14.48z" fill="#FFF"/><path d="M97.89 194.76a1.17 1.17 0 0 1 0 1.63 1.36 1.36 0 1 1 0-1.63" fill="#3c3c3b"/><path d="M158.05 151.36c-.09-1.34 0-2.74-1.66-3.31l-.72.11c-.83 1.85.38 3.17 1.2 4.6 1.5.47.89-.85 1.18-1.4M131.79 177c.25.25.77.83 1.15.38-.13-.45-.19-.77-.77-.77-.13-.13-.51.07-.38.39M129.74 168.86c0 .7.19 1.73.77 2 1.41-1.67-.58-3.2-1.6-4.42-.13-.26-.77-.26-.83 0-.32 1.15 1.15 1.47 1.66 2.37M140.17 166.49c-.32-.13-.51.19-.76.26.12.06 1 .38.76-.26M134.29 166.3v.25l.06.07zM143.69 163.93c0-.19.26-.64-.06-.51l-.19.19a.33.33 0 0 1 .13-.45l-.32.13c-.26.38.19.64.44.64M144.33 162.07c.07-.38.45-.38.13-.76a1.84 1.84 0 0 0-1 1.4l.71-1.08.16.44zM132.43 161.56h1v1h-1zM132 159.07l.06 1.15a3.75 3.75 0 0 0-.06-1.15M138.12 159.07l.13.32c.26-.32.77-.84.45-1.35.13.19 0 1.28-.58 1M138.12 158.94l.13-.13-.13-.19zM132.06 158.11h.11c0-.05-.06 0-.11 0M131.92 158.94c-.24-.24 0-.69.14-.83a.5.5 0 0 0-.33.12c0 .26 0 .58.19.71M138.44 158.23c0-.19-.12-.57.2-.57l.19.19c.13-.13-.19-.58-.39-.45 0 .26-.38.64 0 .83M138.19 156c.06-.19 0-.64-.38-.64l-.26.2c.06.38.26.89.64.44M146.76 152.41c0-.13.13-.38-.06-.38 0 .12-.06.38.06.38M147.85 149.21c-.12-.19-.57-.13-.51.13.06.26.51-.13.51-.13M175.34 160.28c-1.09.59-2.29 3.14-3.38 5.65-.65 1.49-1.15 3.57-.61 3.38 1.22-.44 2.41-4.17 3.54-6.26.53-1.48 1.05-3.1.45-2.77M179.36 182.47c0 .45.34.81.34 1.24 0 1.44-3.5 1.85-1.68 3.83a1.72 1.72 0 0 0 2.58-.21 1.93 1.93 0 0 0-.55 1.33c.06.5.74.88 1.06.51.1-.12.18-.29.33-.29.15 0 .21.31.18.51-.07.58.91 3.82 1.51 4.17.22.13.32.38.49.56 1.31 1.4 3.39-1.3 4.92.87v-.44a.423.423 0 0 1 .37.76c.59.69 1.18 1.39 1.76 2.09a14.46 14.46 0 0 1-4.1-.94c0 .6 1.42 1.28 1.82 1.53 1 .63 2.06 1.18 3.12 1.71a.86.86 0 0 1 .22.15c.338.43.567.934.67 1.47a1.92 1.92 0 0 0 .91-.21c.71-1.35-1.27-.48-1.58-1.51a23.62 23.62 0 0 1-1.27-3.84l.18-.19a.37.37 0 0 1 0-.18c.31-.12.23-.46.36-.69l.19-.15v-.39c-.11-.32-.42-.26-.63-.38l-.17.19c-.11.09-.17.06-.22 0 0-.32-.05-.65-.05-1a1.7 1.7 0 0 0 .14-.77c0-.22 0-.34-.08-.38a10.86 10.86 0 0 1 .57-2.47l4-1.11c-.08 0-.4-.8 0-1-2.14 0-4 1.11-6.1.88.15-.24.71.08.63-.4-.72.24-1.59.79-2.22.32 0-2-1.19-1.75-.56-3.73-.39-.48-1-.08-1.42-.32a.67.67 0 0 1 .16-1.11c-.16-.87-1.83-.63-2.46-1.26-.16-.32-.32-.8-.8-.88-.31.48-.31 1.35-1.1 1.27a2 2 0 0 1-1.42-.41 2.47 2.47 0 0 0-.12.8" opacity=".7" fill="#3c3c3b"/><path d="M105.2 173.06a4.22 4.22 0 0 0 1.89 3 1.46 1.46 0 0 0 1.56 0s.2.1.23.1.25-.14.32-.21c.07-.07.32-.46.52-.66s.18-.25.28-.37a2.92 2.92 0 0 1 1.61-.08c0 1.08.15 1.17.83.78l.15-.15.33.07.71.29c.36.42.81.41 1.17.78a9.82 9.82 0 0 1 3.78 0l.39-.06c1.5.51 3 1 3.92 2.08.36.26.84.5.83.83.08.096.17.184.27.26.78.6 1.7 1.28 2.55 2l.25-.21a.88.88 0 0 1 .21.62c1.25 1.17 2.22 2.5 2 3.94 2.6.58 2.78 2 5.43 2.31a29.81 29.81 0 0 0 3.27.14 2.2 2.2 0 0 1 .49-1l.06-.34c0-.15.15-.29 0-.44.08-.17-.15-.41 0-.56a.19.19 0 0 1 .16.06c.188.033.38.015.56-.05a.69.69 0 0 1 0 .13c-.28.37.15.32.17.51.02.19.18.52.45.29.07.17.16.3.35.29v.08c-.2.14-.51 0-.59.43 0 .17.1.33 0 .52.4 0 .8-.06 1.19-.09a5.34 5.34 0 0 0-.17-1.68c.34 0 .24.8.79 1 .55.2 1-.42 1.4-.75.28-.52.33-1.23.91-1.35a2.74 2.74 0 0 0-.12 2.49c1.53-.22 3.06-.49 4.6-.79-.17-.68 1.68-.33 1-1.11l-1.07-.31c.48-.16.82-.42.69-.78a9.62 9.62 0 0 0-2.16-.67c.46-.23 1.36-.41 1.59-1l-.83-.86a6.4 6.4 0 0 0 4.29.06c.35-.52-.77-.68-.53-.9.26.12.81.47 1.28.3.41-1.29.22-3-.88-3.76.32.3.43-.28.72-.38 1 1 1.66 2.33 2.9 3.12.88-.85 1 1.07 2.47-.25.21-.34-.8-.47-.1-.91.32-.11.64-.26.95-.4a3.65 3.65 0 0 0-.08-.54 2.76 2.76 0 0 1 1-2l.19-.06a1.73 1.73 0 0 0 1.09-.64c.51.13 1.15 1 1.66.25.134.09.261.19.38.3 1.43-1.18 2.74-2.48 4-3.64-.21.61.89 1 .3 1.79-.85 1.24-4.17 2.74-2 3.69 1.42 1.33 1.52 3.46.71 5.44 1.54 1.2 3.77.12 5.85-.29a1.3 1.3 0 0 1 .08-.17 7.51 7.51 0 0 1 .07-2.8 1 1 0 0 0-.29-.63.86.86 0 0 1 0-.16 1.38 1.38 0 0 1-.05-.45c.25.14.31 0 .23-.32a1.68 1.68 0 0 0-.7-.79h-.06c-.09-.16-.27-.25-.31-.45a1.93 1.93 0 0 1 0-.24 1.25 1.25 0 0 0 0-.74.16.16 0 0 0-.22 0 .35.35 0 0 1-.41.3.53.53 0 0 0-.08-.17.76.76 0 0 1-.11-.14c0-.5.06-1 .1-1.5l-.18.14c-.1.2-.19.39-.3.59a1 1 0 0 1-.6-.7h-.18l-.65-1.28a.62.62 0 0 0 .35-1 .77.77 0 0 0 .42-.23l.12-.19c.33-.86.27-1-.55-.89a5.94 5.94 0 0 1 .14-1.93c.09-.13.19-.25.3-.38.25-.4.68-.69.7-1.23a.69.69 0 0 0-.11-.13.92.92 0 0 0 .2-.72.94.94 0 0 0-.05-.8 1.17 1.17 0 0 0-.34-.87 1.3 1.3 0 0 0-.49-.66 1.61 1.61 0 0 0-1.35-.69l-.53-.07-.18-.1-.44.15a4.71 4.71 0 0 1 .39-1.45c-.09-.32-.18-.65-.26-1-.14-.49.15-.7.19-1.07.04-.37.23-.55.35-.82l.06-1.81c0-.15-.05-.29-.07-.44.23-.69-.2-1.5-.13-2.23l.06-.11a12.85 12.85 0 0 1 .12-2.56 8.6 8.6 0 0 0-.33-2.85 8.88 8.88 0 0 1-.22-1c-.1-.73 0-1.47-.09-2.21 0-.52-.6-1.5-.11-1.86.49-.36-.29-.79-.43-.91a1.74 1.74 0 0 1-.6-1.53 2.93 2.93 0 0 0 0-1.38c-.16-.41-.58-.71-.61-1.16.025-.28.1-.555.22-.81a2.64 2.64 0 0 0-.06-1.71 13.82 13.82 0 0 0-.63-1.28c-.15-.31-.23-.85-.48-1.08l-.07-.05a.73.73 0 0 0 0-.22h.05c.38.69.83.68 1.22.5.39-.18.08-.66 0-1a1 1 0 0 0-.19-1.28l-.29.05c0-.16-.09-.31-.13-.46.14-.7-.29-.62-.51-.83l.18-.16a.86.86 0 0 0 .11-.92.67.67 0 0 0-.73-.47 4.24 4.24 0 0 1-2.28-.11.65.65 0 0 1-.22-.16l.05-.06a.32.32 0 0 0 .34.19c.49.18.8 0 .87-.75.24-.45-.08-1 0-1.53.46-.12 1.07.37 1.36-.39.22 0 .24.27.29.48 0 .36.17.79.37.68.36-.2.32-.75.09-1.29a.62.62 0 0 0-.07-.23c-.26-.11-.19-.46-.29-.69-.1-.23.07-.66-.06-.95a5.48 5.48 0 0 1-.3.74c-.24.68-.89-.24-.86.7-.3.52-.66-.4-1-.19l-.72-.36a2.12 2.12 0 0 1-1.41-1.21c-.13-.3-.35-.48-.57-.34l-.15.06c-.25.15.05.59-.1.79.2.55.93.72.65 1.6h-.15a.5.5 0 0 0-.8 0l.12.43c.33.22.18 1.08.68 1.09-.05.77 1 1 .63 1.91a.12.12 0 0 0-.15 0c-.72-.14-1.16-1.23-1.82-1.59l-.39-.17c-.55 0-1.06.14-1.13 1.12.26.67-.09 1.65.69 2 .28-.43-.06-1.7.78-1.39 0 .36.08.71.11 1.07-.4-.06-.24.6-.41.84a.28.28 0 0 1 0 .16c.38 1.07.26-.23.44-.09.31.55.537 1.143.67 1.76a4 4 0 0 1 .42 1.56 3.09 3.09 0 0 1-.54 1s-.61-.54-.67-.57c-.06-.03-.06.08-.1.12a1.25 1.25 0 0 1-.78-.83c-.2-.7.42-1.21.09-1.9-.07.4-.15.79-.23 1.18a1.3 1.3 0 0 0-.57-.71c.27-.064.51-.22.68-.44.15-.24.1-.64-.16-.73a.51.51 0 0 0-.54.25c-.13.18-.2.39-.33.56a1 1 0 0 1-.92.37 1 1 0 0 1-.75-.68 1.63 1.63 0 0 0-.15-.44c-.08-.13-.27-.21-.38-.1a.41.41 0 0 0-.06.31c.19 2 1.71 2.66 3.07 3.75a5.93 5.93 0 0 1 1.19 1.4c.22.34.85.59.94.95.09.36-.14.55-.09.83.05.28.32.39.52.54.324.292.439.75.29 1.16-.11.4-.28.79-.42 1.17-.14.38-.21.59-.33.88a5.77 5.77 0 0 1-.55 1.08 8.52 8.52 0 0 0-.46.84l-.21.38c-.23-.1-.25-.44-.37-.67-.15-.07-.19-.25-.24-.43a1.61 1.61 0 0 0-.31-.72l-.43-.43-.78-1.8h-.12c-.29-.59-.6-1.11-1.1-1.22l-.26-.22-.39-.4a5.9 5.9 0 0 0-1-.07 6.94 6.94 0 0 1 1.65 3.55c.05.675.156 1.344.32 2 .17.49.45.93.66 1.41.21.48.46 1.22 0 1.6-.46.38-1-.22-1.44 0-.18.11-.45.06-.62.18a2.37 2.37 0 0 1-.15.28 1.21 1.21 0 0 0 0 .2c-.1.64 1.09 1.48 0 1.92-.44.18-1.37.34-1.3-.52.1-1.22-.71-1.64-1-2.47-.71-.53-.28-1.32-.43-2a2.62 2.62 0 0 1 .89-1.2l-.07-.68c-.43-1.16-1-2.17-2.12-2.21-.7.46-1.29.5-1.56-.75 0-.05.29-.53.33-.63.11-.28.58-1.06.53-1.33-.05-.27-.92-.66-1.23-.84a1.46 1.46 0 0 0-1.33-.08c-.37-.08-.49.34-.68.64-.23.46.19.43.28.65l-.24.34a.88.88 0 0 0-.48.68v2.24c-.17.75-.45 1.21-1.1.79-.31-.32-.59-.41-.82 0a3.62 3.62 0 0 0-.48 1.4c0 .09 0 .18.07.27.18 1 .35 2.07.53 3.1a.11.11 0 0 0-.05.1c-.18-.49-.5-.5-.77-.68-.5-.31-.33.51-.35.81a3.4 3.4 0 0 0 1.87 3.37c.225.105.414.276.54.49.16.39-.17.8-.47 1.1.1.1.28 0 .39-.06.11-.06.23-.22.37-.24a.66.66 0 0 1 .35.11 6.09 6.09 0 0 1 2.23 1.59c.33.46.69 1.55 1.36 1.58l.44 1c.25.491.473.995.67 1.51.41 1.06 1.4 3.14.39 4.09a1.71 1.71 0 0 1-1.93.08c-.61-.31-1.13-.81-1.75-1.11a.45.45 0 0 1-.48.38c-.23.64-.07 1.47-.49 2s-1.16.47-1.76.8c-1.24.67-.18 2.39-1.15 3.07-.46-.71-2.44.69-3.39.08-.16-.1-.57-.64-.77-.82a3.55 3.55 0 0 1-.93-1.3.12.12 0 0 0 0-.08c-.25-.33-.09-1.08-.08-1.46a6 6 0 0 0 0-1.89c-.25-.77-1.27-.9-1.35.08v-.35a2.18 2.18 0 0 0 .07 1.26c.15.4.238.822.26 1.25a.7.7 0 0 1-.11.41c-.41.51-.38-.24-.35-.45a4.86 4.86 0 0 0-.06-1.7c-.23-1.45-.76-3.5-2.12-4.25a1.32 1.32 0 0 0-1.14-.6c0-.05-.09-.1-.13-.16l-.3-.74a1.48 1.48 0 0 0-.27-.91c-.1-.35-.21-.69-.31-1-.1-.31 0-.7 0-1-.07-.52-.19-1-.75-1.2l-.39-.05-.29.32-.14.15a.79.79 0 0 0-.26.58c-.074.497.08 1 .42 1.37l.55.92c.09.8.04 1.608-.15 2.39l-.14.14h-.86l-.72-.44-1.67-1.86c-.24-.15-.46-.36-.78-.26h-.29c-.23.17-.55.25-.59.61a1 1 0 0 0 .29 1.4.55.55 0 0 0 .45.25 7.25 7.25 0 0 0 1.72.32l.3.31c.5.13.67.67 1.05.94.19.182.42.318.67.4l1 .76c.19.3.39.6.58.91.19.31.53 3.37.64 3.74l-1.91-1.26c-.23-.15-.2-.56-.34-.81a1.09 1.09 0 0 0-1.13-.65c-.35 0-.37-.39-.57-.56a.88.88 0 0 1-.71-.38c0-.17-.1-.4-.29-.32-.19.08 0 .25.11.36a4.63 4.63 0 0 0 1.75 2.13.57.57 0 0 0 .29.46l.17.29c.08.13-.65.7-.76.73-.11.03-.25-.14-.52-.17s-.49.27-.6.2c-.59.36-.63.44-.32.72.498.545.86 1.2 1.06 1.91-.738.07-1.482.07-2.22 0a1.87 1.87 0 0 0-1.17.09c-.12.08-.31.24-.24.45.07.21.37.09.52.17.346.421.479.978.36 1.51a.39.39 0 0 1-.62.22 1.41 1.41 0 0 0-.6-.27.62.62 0 0 0-.52.43 2.67 2.67 0 0 0-.09 1.16 2.14 2.14 0 0 0 .71 1.41c.25.18.54.31.79.51a3.29 3.29 0 0 1 1 2c-.28-.12-.6 0-.54.38.05.138.07.284.06.43-.06.29-.46.37-.56.65-.1.28.09.49.24.7.15.21.28.52.1.71a7.62 7.62 0 0 1-1.5-1.65 5 5 0 0 1-1-2.07 1.86 1.86 0 0 0 1 0c.45-.19.26-.77-.2-.92a.72.72 0 0 0-.88.71c0-.22-.81-.94-1-1.14-.44-.6-.71-1.25-1.1-1.88a17.83 17.83 0 0 0-1.39-1.73 8.51 8.51 0 0 1-.92-1.43 4 4 0 0 0-.67-1.3c-.33-.29-1.64-1-1.69-.1.531.455 1.02.957 1.46 1.5a1.33 1.33 0 0 0-.21.79 13.33 13.33 0 0 0-1-1.4h-.12l-.32-.43c-.62.41-.11.66.13.95.401.444.671.991.78 1.58-.27.14 0 .45-.17.62a6.4 6.4 0 0 1-2.12-1.84 2.81 2.81 0 0 0-1.49-1.17c.07.52.51.77.82 1.08.62.62 1.16 1.34 1.82 1.92l-.64-.26-.57-.36a1.62 1.62 0 0 1-.1-.18c-.05-.12-.77-.31-.92-.37l-1.18-.53c-.76-.34-1.51-.7-2.27-1a3.74 3.74 0 0 0-3.77.29 3.11 3.11 0 0 0-.64 2.17c0 .09.07.17.1.26s.09.47.14.7h-.04zm53.19-19.91c-.14.19-.11.15 0 0zm1.04 21.64v-.13l.06.11-.06.02zm3.94-17.77c-.26-1.27-.54-1.58-1.55-1.75v-.09l.09-.2s.07 0 0-.09l.14-.12c.28-.63-.09-1.32-.18-2 .15 0 .37.35.43.11s-.22-.59-.4-.83c-.1-.15-.19-.3-.28-.45a1.3 1.3 0 0 0 .33-.64h.05a.65.65 0 0 0 .31-.57c.193.476.456.921.78 1.32h.08v.19h-.13c-.14 1.25.44 2.43.63 3.65-.38.24-.23.77-.14 1.27a.21.21 0 0 0-.25.16l.09.04zm.14 3.91a.64.64 0 0 0 0-.07h.1a.12.12 0 0 0-.1.14v-.07zm.13 5a2.66 2.66 0 0 0 .3-1.6 11 11 0 0 0 .33 1.49 2.78 2.78 0 0 1-.63.11zm.13-2.47v-.3c0 .27.07.54.1.81 0-.16-.04-.33-.12-.51h.02zm1.02-5.26v-.12a.3.3 0 0 0 0 .1v.02zm1.32-.56c-.21-.24-.42-.3-.63-.1a.75.75 0 0 0-.06.13 2 2 0 0 1 0-.24 3.3 3.3 0 0 0-.59-1.94.17.17 0 0 0-.17 0c0-.21-.09-.41-.14-.62a2 2 0 0 0 1.1-.15c.283.945.434 1.924.45 2.91l.04.01zm-7.04-23.38c.34 0 .48-.26.57-.63.51.53.56-.23.76-.6 0-.41.78-.28.24-1.1v-.29c.312.147.662.19 1 .12a.33.33 0 0 1 .28-.12c.27.34-.09.86.07 1.24-.18.31 0 .65.1 1l.15.75a10.23 10.23 0 0 1 1.24 2.95l.08.06c.02.069.047.136.08.2l-.2.54c-.28-.82-.62-1.49-1.28-1.49-.46-.31-.71.17-.7.59 0 .68.49.79.84 1l.27.34.65.26.52.81c0 .32.06.65.08 1-.17.48-.33.95-.49 1.43a.9.9 0 0 0 .21 1l.24.2.61.5c.11.26.22.53.32.8a.93.93 0 0 1 .22.31c.05.18.09.36.15.53.06.17.05.24.07.35l-.09.08c-.23.28-.67-.07-.84.41a1.29 1.29 0 0 0 0 .34v.1c0 .19.12.4.06.48-.72 1.05.13 1.26.57 1.68a.34.34 0 0 0 .28.19v.09c-.25.35.09.75.18 1.14-.54.48 0 .69.23 1v.11c0 .36-.17.38-.34.46l-.09.05h-.15c-.51 0-.78.44-.8 1.2l-.32-.19c-.09-.2-.17-.41-.25-.61a1.53 1.53 0 0 0-.14-.34c-.09-.38-.18-.75-.28-1.12a3.25 3.25 0 0 0-.42-1.25c-.09-.32-.12-.68-.38-.88-.2-.45-.21-1.09-.62-1.36 0-.67-.63-1-.61-1.71.59.48 1.17.89 1.41-.28.16-.47.79-.83.5-1.26-.4-.61-.52.49-.87.61-.07 0-.12.12-.17.18-.54-.57-.61.7-1.1.32l-.39-1.06c.06-.26.12-.53.19-.79.1.14.21.21.31 0a.59.59 0 0 0 0-.69c-.06-.25-.12-.49-.17-.73l-.41-.41a1.74 1.74 0 0 1 .3-1.59c.17-.25.36-.78 0-.9-.83-.24-.64-1-.75-1.72.14-.27.43-.45.14-1a2.08 2.08 0 0 1-.09-1.15c-.18-.87-.71-.67-1.07-1l.06-.16.04.01zm1.53 9.54h-.06c.12-.15.17-.18.06 0zm-.91 1.68c-.14.08-.13 0 0-.25a.57.57 0 0 1 0 .25zm-.7-6.66a1.44 1.44 0 0 0 0-.75c.16.11.3.06.41-.13a.28.28 0 0 1 0 .09 9.82 9.82 0 0 0 .05 1.53v.17l-.51-.9.05-.01zm-.24 7.78a.38.38 0 0 0 0-.1l.36.18c.06.07.13.14.19.22.15.5.71.37.74 1.07a.31.31 0 0 1-.42.16 1 1 0 0 1 0 .17h.38a.86.86 0 0 1 .14.18c.41.327.926.494 1.45.47.04.106.087.21.14.31-.27.27-.73.09-.9.61l-.2.3c-.26-.19-.33.24-.49.35a9.53 9.53 0 0 1-1.21 1.58c.32-.62.57-1.32.24-1.57a.14.14 0 0 1 .12-.09.76.76 0 0 0-.11-.31c0-.14 0-.27-.08-.4a1.77 1.77 0 0 1-.34-.55.27.27 0 0 1 0-.28c0-.13-.09-.27-.15-.39a3.15 3.15 0 0 1-.76-1.66c.46.34.77-.09 1.13-.25h-.23zm-1.69 7.54v-.07.07zm-.09 5.37a.79.79 0 0 0 0 .09.13.13 0 0 0 0-.06v-.03zm-.45-.59h-.05v.06l.05-.06zm-.1-.04v.07-.07zm-3.61 19.33a.93.93 0 0 0 0 .1h-.06a.26.26 0 0 1 0-.15l.06.05zm-.92-16.21a.69.69 0 0 1 0-.13v.13zm-6.76-8.02v-.06.07h-.07l.07-.01zm4.54.71a.13.13 0 0 1 0-.06v.06zm.14.41a.19.19 0 0 1-.09 0h.09zm-2.17 21.42v-.05.05zm-11.77-11.53a.09.09 0 0 0 0-.05v.05zm-9.74 4.77c.872.094 1.73.3 2.55.61 0 0 0 .1.05.15v.61h.11c.165.35.4.663.69.92a.38.38 0 0 0 .09.1.38.38 0 0 1 0 .21l-.37.28c-.08.39-.48.13-.56.51l.62 1.24.3 1.42c-.58.18-.47-.77-.75-1.08a2.62 2.62 0 0 0-1.38-2.1.28.28 0 0 0 0-.09c0-.3-.46-.22-.36-.68A15.8 15.8 0 0 0 126 170l.2-.09-.07-.15zM117.58 187.6h.12a6.53 6.53 0 0 0-1.24-1 1 1 0 0 0 .74-.26 1.64 1.64 0 0 1 .17-.81.66.66 0 0 1 .25-.34 2.09 2.09 0 0 0-.3-.82c-.26.91.52 2.25-1.49 2.09-1.52.63-1.07-1.41-2.29-1.19-1.22.7.16 1.22-.2 2-1.27 1.32-2.08-.58-3.15-.33-.15.68.46 1 .71 1.49-1 2.57-2.34-.8-3.56.84-.55 2.34-1.72 5.73-1.91 8.69a2.15 2.15 0 0 1-.43.61h.34a1.29 1.29 0 0 0 1.32-.55c.25-.52-.1-1.25.27-1.7.17-.21.46-.3.65-.5.71-.75-.56-2.14.09-2.94a2.75 2.75 0 0 1 .74-.5 7.52 7.52 0 0 0 1-1.13 1.28 1.28 0 0 1 1.39-.42c1 .52.05 2.43 1 3.09a.38.38 0 0 1 .16 0 .93.93 0 0 1 .16.18 6.24 6.24 0 0 0 1 .06c.347.012.667.191.86.48.38-.08.8-.11 1-.43.2-.32-.64-1.58.06-1.45.12 0 .2.13.3.2a.88.88 0 0 0 1.26-.23 1.26 1.26 0 0 0 .08-.66c-.07.1-.15.19-.28.08-.13-.11-.09-.25 0-.36a1.62 1.62 0 0 0 .19-.18.25.25 0 0 0 0-.09.69.69 0 0 0 0 .08.19.19 0 0 1 .25 0v.06a3.1 3.1 0 0 0 .57-.53 1 1 0 0 0-.61-.73c.14-.2.38-.21.56-.39 0-.37.15-.82-.26-1 .08-.37.4 0 .55-.19-.37-.36.42-.84-.18-1.11" opacity=".7" fill="#3c3c3b"/><path d="M122.74 240.22h-7.57a5 5 0 0 0-4.85 3.87l-14.6 64.75a68.75 68.75 0 0 0-1.09 8.44h-.55a56 56 0 0 0-1.5-8.44l-17.13-64.93a5 5 0 0 0-4.8-3.69H64a5 5 0 0 0-4.8 3.69l-17.13 64.93a56 56 0 0 0-1.5 8.44H40a68.75 68.75 0 0 0-1.09-8.44l-14.62-64.76a5 5 0 0 0-4.84-3.86H5a5 5 0 0 0-5 5v3.55a5 5 0 0 0 5 5 5 5 0 0 1 4.82 3.77l18.7 75.64a5 5 0 0 0 4.81 3.78h12.28a5 5 0 0 0 4.79-3.69l15.22-57.31a56 56 0 0 0 1.5-8.85h.41a57.36 57.36 0 0 0 1.5 8.85l15.22 57.24a5 5 0 0 0 4.8 3.69h12.31a5 5 0 0 0 4.82-3.78l21.38-86.74a5 5 0 0 0-4.82-6.15M278.5 240.22H264a5 5 0 0 0-4.85 3.87l-14.6 64.75a68.75 68.75 0 0 0-1.09 8.44h-.55a56 56 0 0 0-1.5-8.44l-17.13-64.93a5 5 0 0 0-4.8-3.69h-6.65a5 5 0 0 0-4.8 3.69l-17.13 64.93a56 56 0 0 0-1.5 8.44h-.54a68.75 68.75 0 0 0-1.09-8.44l-14.64-64.76a5 5 0 0 0-4.85-3.86h-14.59a4.7 4.7 0 0 1-4.62-4.69V226c0-7.77 3.71-11.71 11.05-11.71h1.27a4.69 4.69 0 0 0 5-4.68v-4.21a4.68 4.68 0 0 0-4.3-4.68c-1.05-.08-2.2-.14-3.32-.14-7.71 0-25.64 2.5-25.64 25.64v93.94a3.58 3.58 0 0 1-3.57 3.58 3.57 3.57 0 0 0-3.56 3.66v5.84a3.58 3.58 0 0 0 3.58 3.58h23.24a3.58 3.58 0 0 0 3.58-3.58v-5.84a3.57 3.57 0 0 0-3.58-3.57h-.18a3.58 3.58 0 0 1-3.58-3.58V258.2a4.66 4.66 0 0 1 3.45-4.5h1.25a5 5 0 0 1 4.82 3.77l18.7 75.64a5 5 0 0 0 4.82 3.78h12.31a5 5 0 0 0 4.79-3.69l15.23-57.31a56.73 56.73 0 0 0 1.49-8.85h.41a57.36 57.36 0 0 0 1.5 8.85l15.22 57.31a5 5 0 0 0 4.8 3.69h12.31a5 5 0 0 0 4.82-3.78l18.69-75.64a5 5 0 0 1 4.82-3.77 5 5 0 0 0 5-5v-3.55a5 5 0 0 0-5-5" fill="#FFF"/><path d="M126.84 180c1.08-.36 1.8.63 3 .45.54.9 1.89 1.53 1.89 2.61-1.35.36-.09 2.43-1.8 2.34a1.82 1.82 0 0 1-.85.23c.01.126.01.254 0 .38 2.6.58 2.78 2 5.43 2.31a29.81 29.81 0 0 0 3.27.14 2.2 2.2 0 0 1 .49-1l.06-.34c0-.15.15-.29 0-.44.08-.17-.15-.41 0-.56a.19.19 0 0 1 .16.06c.188.033.38.015.56-.05a.69.69 0 0 1 0 .13c-.28.37.15.32.17.51.02.19.18.52.45.29.07.17.15.3.35.29v.08c-.2.14-.51 0-.59.43 0 .17.1.34 0 .52.4 0 .79-.06 1.19-.09a5.37 5.37 0 0 0-.17-1.68c.34 0 .24.8.79 1 .55.2 1-.41 1.4-.75.28-.52.33-1.23.91-1.35a2.74 2.74 0 0 0-.12 2.49c1.53-.22 3.06-.49 4.59-.79-.16-.68 1.68-.33 1-1.11l-1.07-.31c.48-.16.82-.42.69-.78a9.78 9.78 0 0 0-2.16-.67c.46-.23 1.36-.41 1.59-1l-.83-.86a6.4 6.4 0 0 0 4.29.06c.35-.52-.77-.68-.53-.9.26.12.81.47 1.28.3.41-1.29.22-3-.88-3.76.32.3.43-.28.72-.38 1 1 1.67 2.33 2.9 3.12.88-.85 1 1.07 2.47-.25.21-.34-.8-.47-.1-.91.32-.11.64-.26.95-.4a3.65 3.65 0 0 0-.08-.54 2.76 2.76 0 0 1 1-2c.45-.19 1-.19 1.28-.7.51.13 1.15 1 1.66.25.134.09.261.19.38.3 1.43-1.18 2.74-2.48 4-3.64-.21.61.9 1 .3 1.79-.85 1.24-4.17 2.74-2 3.69 1.43 1.33 1.53 3.46.72 5.44 1.54 1.2 3.77.12 5.85-.29 0-.06.05-.11.07-.17a11.33 11.33 0 0 1-.07-1.3 1.14 1.14 0 0 1-.46-.36c0-1.44 1.44-2.61 1-4 .24-.15.5-.34.77-.55.215-.345.45-.68.7-1a4.22 4.22 0 0 1 .57-.19c.23-.237.396-.53.48-.85-1.08.81-2.88.72-3.51 2.07-.27.54-.81-.18-.81-.63-1.71-1.35 1.17-2.43 1.17-3.6-.72-.63-1.89.45-2 1.35-1.44.45-1.35-1.53-2.52-1.62a4.3 4.3 0 0 1 .9-2.07c-1-.63-1.17.72-1.89 1.17-.36-.18-.9-.54-.81-.81a1.83 1.83 0 0 0 1.35-1.44c-.64-.39-1-.19-1.21.18-.1-.51-.68-1.11-.59-1.61a1.85 1.85 0 0 1 0-.25c.073-.113.14-.23.2-.35.22-.15.58-.08.81-.22.68-.17 1.6.69 2.07-.41.47-1.1-.31-1.72-.89-2.41a5.65 5.65 0 0 1 0-.82 20.72 20.72 0 0 0-.69-2.57c0-.07-.05-.14-.08-.2a1.22 1.22 0 0 0 .19-.12c-.21-.46.26-1.09-.36-1.45-.79-1.16-1.82-2.16-1.83-3.79l-.88-.27h-.43c-.67-.29-1.14.12-1.63.49s-1.27.63-1.61-.61c-1.6.14-1.34 2.16-2.16 3.1.36 1.57 1.13 1.52 2 .94 1.51.06 2.21 1.32 2.77 2.78 0 .29.06.57.1.85a3.23 3.23 0 0 0-1.17 1.51c.19.82-.37 1.81.56 2.46.153.38.359.736.61 1.06-.38.63-.25 1.57-.94 2.17-1.26-.81-.72-3.87-2.88-4.68-.45-.18-.81.36-1.26.36a2.18 2.18 0 0 1-.9-2.52l-1.53-.54a3 3 0 0 0 .63-2.07c-1.26-1.08-2.79.72-4.05-.18-.63.63.81.63.45 1.26-.09.9-3.15.9-3.51 2.52-1.08.72-1.26-.72-1.89-1.26.63-1 1.71-.81 2.52-1.44h-1.62a.88.88 0 0 1-.34-.15c.11-.386.052-.8-.16-1.14a1.39 1.39 0 0 0-.3.47c-.2-.66-.09-1.45-1.09-1.34-.09.27-.09.54-.27.72.18-.18.45-.45.72-.18 0 .81-.9 1.08-1 1.26-.27-.81.54-1.53.09-2l-.45 1.35a16.08 16.08 0 0 0-1.17-5.85c.09 2.43.36 5.31 1.8 7.2 2.25 1.35-.36 2.88-.63 4.41 1 .27 1.17 1.17.9 2.07-1.35.81-1-1.62-2.16-.81.559.73 1.192 1.4 1.89 2l-.07 4.24a7.06 7.06 0 0 1-1.36.14c-.72.27.09.9-.19 1.26-1.61 1.08-1.16-1.53-2.15-.81-.82-1.62-1-3.69-1.53-5.49-.27 0-.54.72-.72.18.72 1.44.36 3.87-.36 5.4-.45 0-.81-.72-1-1-.27.18.63.9.18 1.44a4.72 4.72 0 0 1-3.6-2.07l.45 1.53c-.36.63-1.17.45-1.62.54a10.61 10.61 0 0 1 1.62 1.89c0 .54-.36.72-.81.72l.81.9c.36 1.44-1.35-.18-1.17 1.26-2.25.54-4.5-.81-6.66-1.26.27.54-1.17 1.35-.09 1.62l.09-.07zm37.18-9.21a3.09 3.09 0 0 0 .51-.15.83.83 0 0 0 .25-.12c-.21.46-.46.89-1 .85a3.35 3.35 0 0 0 .2-.58h.04zm-1.04-8v-.06a.3.3 0 0 0 0 .08h-.07l.07-.02zm-.82 5.21a3 3 0 0 1 .64 1.44 1 1 0 0 1-.64-1.44z" opacity=".7" fill="#3c3c3b"/></g></svg>
