<svg class="{{ data.svg.class ?? null }}" xmlns="http://www.w3.org/2000/svg" viewBox="0 0 310 310">   <path d="M272.9 39.1c-14.9 36.4-28.3 73.7-44.8 109.4-.3.6-.5 1.2-.8 1.8 1.5-3.1-2.1 3.5-2.6 4.5-5.4 10.4-11.5 20.4-18.4 29.9-9.2 12.7-21.4 25.2-33.3 33.2-12.6 8.5-21.2 12.3-35.4 15.4-7.6 1.6-6.1 1.5-14.6 1.7-3 .1-6.1.1-9.1-.1-1.4-.1-2.7-.2-4.1-.3-.9-.1-6.8-.8-2.2-.2-6.2-.9-12.3-2.3-18.3-4.2-3.4-1.1-6.7-2.3-9.9-3.6 4.2 1.7-3.6-1.7-4.8-2.4-4.9-2.5-9.7-5.3-14.2-8.5-1.1-.7-2.1-1.5-3.2-2.3 4.1 3 .5.4-.2-.2-2.1-1.9-4.2-3.7-6.2-5.6-17.2-16.9-43.6 9.5-26.4 26.4 39.6 39.1 102.1 48.8 152 24.9 36-17.2 62.5-50.9 80.7-85.5 10.2-19.5 17.6-40.8 25.9-61.1 8.7-21.2 17.4-42.3 26-63.5 3.8-9.3-4.2-20.6-13.1-23-10.7-2.7-19.1 3.9-23 13.3z" fill="#ffc32c"></path>   <path d="M92.7 39.1c-14.9 36.3-29.8 72.7-44.7 109-3.8 9.3 4.2 20.6 13.1 23 10.7 2.9 19.2-3.7 23-13.1 14.9-36.3 29.8-72.7 44.7-109 3.8-9.3-4.2-20.6-13.1-23-10.8-2.9-19.2 3.7-23 13.1z" fill="#53c9aa"></path>   <path d="M2.9 49.1c14.9 36.3 29.8 72.7 44.7 109 3.8 9.3 12.4 16 23 13.1 8.8-2.4 16.9-13.6 13.1-23-14.9-36.3-29.8-72.7-44.7-109-3.8-9.3-12.4-16-23-13.1-8.9 2.4-17 13.5-13.1 23z" fill="#57dfbf"></path>   <path d="M182.8 39.1c-14.9 36.3-29.8 72.7-44.7 109-3.8 9.3 4.2 20.6 13.1 23 10.7 2.9 19.2-3.7 23-13.1 14.9-36.3 29.8-72.7 44.7-109 3.8-9.3-4.2-20.6-13.1-23-10.7-2.9-19.1 3.7-23 13.1z" fill="#b7e5a8"></path>   <path d="M93 49.1c14.9 36.3 29.8 72.7 44.7 109 3.8 9.3 12.4 16 23 13.1 8.8-2.4 16.9-13.6 13.1-23-14.9-36.3-29.8-72.7-44.7-109-3.8-9.3-12.4-16-23-13.1-8.9 2.4-17 13.5-13.1 23z" fill="#bef2af"></path>   <path d="M183.1 49.1c14.9 36.3 29.8 72.7 44.7 109 3.8 9.3 12.4 16 23 13.1 8.8-2.4 16.9-13.6 13.1-23-14.9-36.3-29.8-72.7-44.7-109-3.8-9.3-12.4-16-23-13.1-8.8 2.4-16.9 13.5-13.1 23z" fill="#ffdc7b"></path> </svg>
